<?xml version="1.0" encoding="UTF-8"?>
<svg width="1280px" height="640px" viewBox="0 0 1280 640" version="1.1" xmlns="http://www.w3.org/2000/svg" xmlns:xlink="http://www.w3.org/1999/xlink">
    <title>biwa-umentor</title>
    <g id="clara-fonts-text" stroke="none" stroke-width="1" fill="none" fill-rule="evenodd">
        <rect id="Rectangle" fill="#FFFFFF" x="0" y="0" width="1280" height="640"></rect>
        <g id="Group" transform="translate(373.000000, 195.000000)">
            <g id="logo" transform="translate(0.000000, 22.188343)">
                <path d="M114.93591,118.190249 C114.93591,118.190249 100.89459,98.0977735 100.134325,78.6424022 C99.3688158,59.1817655 84.9971737,47.6559718 68.5230039,47.6559718 C52.048834,47.6559718 37.6771919,59.1817655 36.9169263,78.6424022 C36.1514174,98.0977735 22.1153408,118.190249 22.1153408,118.190249 L22.167773,118.216576 C11.69708,130.927067 5.24268696,147.107407 5.24268696,162.798072 C5.24268696,195.795856 33.5770007,222.548966 68.5230039,222.548966 C103.47425,222.548966 131.803321,195.795856 131.803321,162.798072 C131.803321,147.112672 125.354171,130.932332 114.888721,118.221841 L114.93591,118.190249 Z" id="Fill-1" fill="#F9D841"></path>
                <path d="M119.39631,124.354363 C120.717599,129.835566 121.493594,135.390482 121.493594,140.898011 C121.493594,178.37132 89.3160068,208.752238 49.6301407,208.752238 C40.0193344,208.752238 30.8646875,206.935701 22.4860359,203.708058 C34.0315871,215.28124 50.358947,222.547386 68.5266741,222.547386 C103.472677,222.547386 131.806991,195.794276 131.806991,162.796492 C131.806991,149.527876 127.156263,135.93281 119.39631,124.354363" id="Fill-3" fill="#FAAC28"></path>
                <path d="M26.8714578,120.52542 C26.6931886,120.899258 26.4729737,121.252035 26.20557,121.573219 C16.2172525,133.693995 10.4864226,148.715963 10.4864226,162.795439 C10.4864226,192.839377 36.5242098,217.28101 68.5235282,217.28101 C100.52809,217.28101 126.560634,192.839377 126.560634,162.795439 C126.560634,148.726494 120.835047,133.704525 110.851973,121.578485 C110.579326,121.252035 110.353868,120.899258 110.175599,120.52542 C107.595939,116.655407 95.6361737,97.7686907 94.8968809,78.8451171 C94.1942906,61.0325268 80.7349672,52.9186629 68.5235282,52.9186629 C56.3173323,52.9186629 42.8527658,61.0325268 42.1554187,78.8451171 C41.4108827,97.7686907 29.4511177,116.660672 26.8714578,120.52542 M68.5235282,227.811657 C30.7409477,227.811657 4.58035179e-14,198.647029 4.58035179e-14,162.795439 C4.58035179e-14,146.557181 6.41244739,129.360633 17.6119467,115.491771 C17.6748652,115.381199 17.743027,115.275892 17.8164319,115.170586 C17.9475122,114.981034 30.9873786,96.0627258 31.6794825,78.4344219 C32.4974235,57.5468825 47.9911128,42.3880154 68.5235282,42.3880154 C89.0559435,42.3880154 104.554876,57.5468825 105.372817,78.4344219 C106.064921,96.1364404 119.094301,114.975769 119.225381,115.16532 C119.298786,115.270627 119.366948,115.370668 119.429866,115.48124 C130.634609,129.360633 137.047056,146.557181 137.047056,162.795439 C137.047056,198.647029 106.306109,227.811657 68.5235282,227.811657" id="Fill-5" fill="#454849"></path>
                <path d="M34.0551816,132.521407 C33.4102666,132.521407 32.7548652,132.363447 32.1571391,132.026467 C30.2538534,130.973402 29.5669927,128.572414 30.615635,126.661102 C32.3563811,123.496642 34.3225853,120.432224 36.4670588,117.536296 C36.5194909,117.430989 36.5771662,117.325683 36.6453279,117.225642 C36.7239761,117.094009 44.9400882,104.02021 47.9706643,89.4299975 C48.4163373,87.2975414 50.4769193,85.9180265 52.6266359,86.3708444 C54.7501365,86.8183969 56.1133714,88.9139958 55.6729417,91.0464519 C52.679068,105.431316 45.3805179,118.01544 43.6397718,120.879776 C43.5139347,121.19043 43.3513952,121.480023 43.1469099,121.748555 C41.0705983,124.51285 39.1725558,127.445635 37.4999714,130.483727 C36.7816514,131.784262 35.4393893,132.521407 34.0551816,132.521407" id="Fill-7" fill="#FEFEFE"></path>
                <path d="M58.5116162,72.5935982 C60.5197662,74.6102172 60.5197662,77.8799833 58.5116162,79.8966023 C56.5034663,81.9132213 53.2474321,81.9132213 51.2392822,79.8966023 C49.2311323,77.8799833 49.2311323,74.6102172 51.2392822,72.5935982 C53.2474321,70.5769792 56.5034663,70.5769792 58.5116162,72.5935982" id="Fill-9" fill="#FEFEFE"></path>
                <path d="M63.3872784,45.2523515 C63.2155147,44.4034392 60.5905201,31.1866757 62.5130922,15.8517069 C63.5836022,7.31302129 74.2671005,8.3362945 73.2369205,14.8799122 C70.9407366,29.4650811 73.6189161,42.9288899 73.6587293,43.1251607 C74.245969,45.9737008 72.4213314,48.7590571 69.5847541,49.3435081 C69.2282158,49.4172226 68.8716774,49.4540799 68.5203823,49.4540799 C66.0875322,49.4540799 63.9011131,47.7428496 63.3872784,45.2523515 Z" id="Fill-11" fill="#454849"></path>
                <path d="M138.893715,17.7715737 C81.0715814,-17.8588722 71.3296949,34.0203628 71.3296949,34.0203628 C71.3296949,34.0203628 103.412905,75.8375642 138.893715,17.7715737" id="Fill-14" fill="#3BB777"></path>
                <path d="M138.893715,17.7715737 L71.3296949,34.0203628 C71.3296949,34.0203628 103.412905,75.8375642 138.893715,17.7715737" id="Fill-16" fill="#239857"></path>
                <path d="M77.0967029,32.6192602 C80.546736,36.226007 89.1193864,43.902849 100.245481,43.2815408 C110.852497,42.6865592 121.365136,34.7043284 131.531722,19.5401959 C115.59236,10.6260028 102.604926,8.319791 92.857796,12.6320912 C82.7593711,17.1286777 78.5280996,27.8383462 77.0967029,32.6192602 M98.9504075,53.8490456 C80.1534951,53.8490456 67.7113548,37.9319719 67.1765472,37.2316838 C66.2642284,36.0417206 65.9024469,34.5147767 66.1750938,33.0404861 C66.3481198,32.145381 70.4954999,11.0630247 88.6107949,3.00707932 C102.615412,-3.22179869 120.45806,0.23751902 141.635391,13.279726 C144.104943,14.8014046 144.875695,18.0395787 143.36565,20.5248115 C130.36773,41.7914542 116.022303,52.9855325 100.727856,53.8016577 C100.13013,53.8332496 99.532404,53.8490456 98.9504075,53.8490456" id="Fill-18" fill="#454849"></path>
            </g>
            <g id="text-1" transform="translate(159.545234, 64.462721)" fill="#454849" fill-rule="nonzero">
                <path d="M56.8819103,67.7829848 L56.8819103,67.7829848 L56.8819103,67.7829848 C56.2102801,68.2307383 54.7464707,68.8679259 52.4904821,69.6945476 L52.4904821,69.6945476 L52.4904821,69.6945476 C50.2344936,70.5211694 48.5554181,70.9344803 47.4532557,70.9344803 L47.4532557,70.9344803 L47.4532557,70.9344803 C44.4739731,70.9344803 42.9843318,69.3329006 42.9843318,66.1297413 L42.9843318,66.1297413 L42.9843318,66.1297413 C42.9843318,63.4948844 44.0606622,60.6275401 46.2133231,57.5277085 L46.2133231,57.5277085 L46.2133231,57.5277085 C48.3659839,54.4450982 50.3206,52.903793 52.0771712,52.903793 L52.0771712,52.903793 L52.0771712,52.903793 C55.607535,52.903793 59.6287055,53.8423531 64.1406826,55.7194734 L64.1406826,55.7194734 L64.1406826,55.7194734 C69.5481667,50.1053339 72.2519087,44.2931496 72.2519087,38.2829205 L72.2519087,38.2829205 L72.2519087,38.2829205 C72.2519087,32.2726914 70.7106036,27.8382101 67.6279932,24.9794765 L67.6279932,24.9794765 L67.6279932,24.9794765 C64.5281616,22.1035216 60.558655,20.6655441 55.7194734,20.6655441 L55.7194734,20.6655441 L55.7194734,20.6655441 C54.496762,20.6655441 52.8951824,20.7774825 50.9147344,21.0013592 L50.9147344,21.0013592 L50.9147344,21.0013592 C50.9147344,24.411174 46.506085,36.9999347 37.6887861,58.7676412 L37.6887861,58.7676412 L37.6887861,58.7676412 C28.8714873,80.5353477 24.4628379,94.3984835 24.4628379,100.357049 L24.4628379,100.357049 L24.4628379,100.357049 C24.4628379,105.643984 27.4421205,108.287451 33.4006857,108.287451 L33.4006857,108.287451 L33.4006857,108.287451 C41.6669034,108.287451 48.7706842,105.971188 54.7120281,101.338662 L54.7120281,101.338662 L54.7120281,101.338662 C60.6705934,96.7233572 63.649876,90.8595091 63.649876,83.7471177 L63.649876,83.7471177 L63.649876,83.7471177 C63.649876,76.6347262 61.3938874,71.3133486 56.8819103,67.7829848 Z M35.880551,10.746083 L35.880551,10.746083 L67.7829848,9.27366294 L67.7829848,9.27366294 C76.2730792,9.27366294 83.0496555,10.9785703 88.1127139,14.3883851 L88.1127139,14.3883851 L88.1127139,14.3883851 C93.1929935,17.7981999 95.7331333,22.9818072 95.7331333,29.9392071 L95.7331333,29.9392071 L95.7331333,29.9392071 C95.7331333,36.8793857 93.5804724,42.5537997 89.2751507,46.9624491 L89.2751507,46.9624491 L89.2751507,46.9624491 C84.969829,51.3710985 78.9595999,55.392269 71.2444634,59.0259605 L71.2444634,59.0259605 L71.2444634,59.0259605 C82.7138404,63.2107332 88.4485289,70.3747885 88.4485289,80.5181264 L88.4485289,80.5181264 L88.4485289,80.5181264 C88.4485289,88.0093861 85.090378,94.9495647 78.3740762,101.338662 L78.3740762,101.338662 L78.3740762,101.338662 C71.640553,107.744981 63.5379376,112.601384 54.0662299,115.907871 L54.0662299,115.907871 L54.0662299,115.907871 C44.5773009,119.214358 35.398355,120.867601 26.5293923,120.867601 L26.5293923,120.867601 L26.5293923,120.867601 C17.6604296,120.867601 11.0216235,119.765439 6.61297413,117.561114 L6.61297413,117.561114 L6.61297413,117.561114 C2.20432471,115.35679 0,111.87809 0,107.125014 L0,107.125014 L0,107.125014 C0,102.389161 2.15266085,94.5706964 6.45798255,83.6696219 L6.45798255,83.6696219 L6.45798255,83.6696219 C10.746083,72.751326 15.042794,61.5058258 19.3481157,49.933121 L19.3481157,49.933121 L19.3481157,49.933121 C23.6362161,38.3604163 25.7802663,29.6550558 25.7802663,23.8170396 L25.7802663,23.8170396 L25.7802663,23.8170396 C25.7802663,22.3876728 25.2291851,21.2596785 24.1270228,20.4330568 L24.1270228,20.4330568 L24.1270228,20.4330568 C23.0248604,19.606435 21.8452023,19.0811858 20.5880484,18.857309 L20.5880484,18.857309 L20.5880484,18.857309 C19.3136731,18.6334323 17.2987826,18.3578917 14.5433767,18.0306873 L14.5433767,18.0306873 L14.5433767,18.0306873 C13.5617633,17.8068105 13.0709567,16.9543568 13.0709567,15.4733262 L13.0709567,15.4733262 L13.0709567,15.4733262 C13.0709567,13.9750742 13.3981611,12.5629287 14.05257,11.2368896 L14.05257,11.2368896 L14.05257,11.2368896 C14.7069789,9.92807183 15.2580601,9.27366294 15.7058136,9.27366294 L15.7058136,9.27366294 L15.7058136,9.27366294 C23.6448268,10.2552763 30.3697393,10.746083 35.880551,10.746083 Z M151.116792,21.6729894 L151.116792,21.6729894 L151.116792,21.6729894 C148.912467,22.7751518 144.994624,23.326233 139.363263,23.326233 L139.363263,23.326233 L139.363263,23.326233 C133.749124,23.326233 129.839892,22.9904179 127.635567,22.3187877 L127.635567,22.3187877 L127.635567,22.3187877 C128.513853,19.1328496 128.952995,16.1621777 128.952995,13.4067718 L128.952995,13.4067718 L128.952995,13.4067718 C128.952995,10.6513659 128.901332,8.82590948 128.798004,7.93040257 L128.798004,7.93040257 L128.798004,7.93040257 C130.003494,6.07050359 133.473583,4.27948977 139.208272,2.55736109 L139.208272,2.55736109 L139.208272,2.55736109 C144.94296,0.852453696 150.505436,0 155.895699,0 L155.895699,0 L155.895699,0 C156.567329,0 156.903144,1.21410072 156.903144,3.64230216 L156.903144,3.64230216 L156.903144,3.64230216 C156.903144,6.07050359 156.291788,9.37699066 155.069077,13.5617633 L155.069077,13.5617633 L155.069077,13.5617633 C153.863587,17.746536 152.546158,20.4502781 151.116792,21.6729894 Z M135.230155,105.316779 L135.230155,105.316779 L135.230155,105.316779 C135.901785,106.642818 136.2376,107.693317 136.2376,108.468275 L136.2376,108.468275 L136.2376,108.468275 C136.2376,109.226011 135.100995,110.491776 132.827785,112.265569 L132.827785,112.265569 L132.827785,112.265569 C130.571796,114.02214 127.213646,115.787322 122.753332,117.561114 L122.753332,117.561114 L122.753332,117.561114 C118.293019,119.317686 113.694935,120.195971 108.959082,120.195971 L108.959082,120.195971 L108.959082,120.195971 C101.795026,120.195971 98.2129986,117.216689 98.2129986,111.258123 L98.2129986,111.258123 L98.2129986,111.258123 C98.2129986,105.867861 99.9179059,99.0137884 103.327721,90.6959069 L103.327721,90.6959069 L103.327721,90.6959069 C106.737536,82.3608041 110.181793,74.4476228 113.660493,66.956363 L113.660493,66.956363 L113.660493,66.956363 C117.139193,59.4651033 118.878543,54.014566 118.878543,50.6047512 L118.878543,50.6047512 L118.878543,50.6047512 C118.878543,49.5025889 118.430789,48.9515077 117.535282,48.9515077 L117.535282,48.9515077 L117.535282,48.9515077 C116.329792,48.9515077 114.599053,49.4681463 112.343064,50.5014235 L112.343064,50.5014235 L112.343064,50.5014235 C110.087076,51.551922 108.683541,52.0771712 108.13246,52.0771712 L108.13246,52.0771712 L108.13246,52.0771712 C107.581379,52.0771712 106.944191,51.3366559 106.220897,49.8556253 L106.220897,49.8556253 L106.220897,49.8556253 C105.497603,48.3573733 105.135956,47.229379 105.135956,46.4716424 L105.135956,46.4716424 L105.135956,46.4716424 C105.135956,45.9205612 106.737536,44.8442308 109.940695,43.2426511 L109.940695,43.2426511 L109.940695,43.2426511 C113.143854,41.6410715 117.165025,40.0997663 122.004206,38.6187356 L122.004206,38.6187356 L122.004206,38.6187356 C126.860609,37.1204837 130.640682,36.3713577 133.344424,36.3713577 L133.344424,36.3713577 L133.344424,36.3713577 C136.030944,36.3713577 138.536642,37.0085453 140.861515,38.2829205 L140.861515,38.2829205 L140.861515,38.2829205 C143.169168,39.5400745 144.322994,41.0813796 144.322994,42.906836 L144.322994,42.906836 L144.322994,42.906836 C144.322994,44.7322924 142.316714,49.8814572 138.304154,58.3543303 L138.304154,58.3543303 L138.304154,58.3543303 C134.274373,66.8444247 130.21876,75.8856002 126.137315,85.477857 L126.137315,85.477857 L126.137315,85.477857 C122.05587,95.0701137 120.015148,102.122231 120.015148,106.634208 L120.015148,106.634208 L120.015148,106.634208 C120.015148,107.960247 120.566229,108.623266 121.668391,108.623266 L121.668391,108.623266 L121.668391,108.623266 C124.320469,108.623266 127.575293,107.297227 131.432861,104.645149 L131.432861,104.645149 L133.241096,103.327721 L133.241096,103.327721 C133.912726,103.327721 134.575746,103.99074 135.230155,105.316779 Z M222.516247,120.195971 L222.516247,120.195971 L222.516247,120.195971 C212.493458,120.195971 206.491839,113.419395 204.511391,99.8662421 L204.511391,99.8662421 L204.511391,99.8662421 C203.633106,101.398937 201.867924,103.542987 199.215846,106.298393 L199.215846,106.298393 L199.215846,106.298393 C196.563767,109.053799 194.109734,111.318398 191.853745,113.09219 L191.853745,113.09219 L191.853745,113.09219 C189.597757,114.848762 186.842351,116.476173 183.587528,117.974425 L183.587528,117.974425 L183.587528,117.974425 C180.332705,119.455456 177.163988,120.195971 174.081378,120.195971 L174.081378,120.195971 L174.081378,120.195971 C168.467238,120.195971 164.084421,118.129417 160.932925,113.996308 L160.932925,113.996308 L160.932925,113.996308 C157.798651,109.863199 156.231514,104.464326 156.231514,97.7996877 L156.231514,97.7996877 L156.231514,97.7996877 C156.231514,91.1350497 157.858925,84.1604285 161.113749,76.8758242 L161.113749,76.8758242 L161.113749,76.8758242 C164.368572,69.6084412 167.649227,63.9856911 170.955714,60.0075738 L170.955714,60.0075738 L175.734621,54.0662299 L175.734621,54.0662299 C171.653176,50.6564151 167.795608,48.9515077 164.161916,48.9515077 L164.161916,48.9515077 L164.161916,48.9515077 C162.078141,48.9515077 160.838208,50.4669809 160.442118,53.4979274 L160.442118,53.4979274 L160.442118,53.4979274 C160.06325,56.5288739 159.322735,58.0443471 158.220572,58.0443471 L158.220572,58.0443471 L158.220572,58.0443471 C154.586881,58.0443471 152.770035,57.105787 152.770035,55.2286667 L152.770035,55.2286667 L152.770035,55.2286667 C152.770035,53.3515465 152.907805,51.5002581 153.183346,49.6748017 L153.183346,49.6748017 L153.183346,49.6748017 C153.458887,47.8665666 153.975525,45.7225164 154.733262,43.2426511 L154.733262,43.2426511 L154.733262,43.2426511 C155.50822,40.7627858 156.885923,38.7220633 158.866371,37.1204837 L158.866371,37.1204837 L158.866371,37.1204837 C160.86404,35.518904 163.292241,34.7181142 166.150975,34.7181142 L166.150975,34.7181142 L166.150975,34.7181142 C169.009709,34.7181142 172.290364,35.2691953 175.99294,36.3713577 L175.99294,36.3713577 L175.99294,36.3713577 C179.678296,37.4735201 182.623136,38.5756824 184.82746,39.6778448 L184.82746,39.6778448 L188.314771,41.3310883 L188.314771,41.3310883 C192.05179,38.7995591 194.85886,37.5337946 196.73598,37.5337946 L196.73598,37.5337946 L196.73598,37.5337946 C198.613101,37.5337946 200.378282,38.4120802 202.031526,40.1686514 L202.031526,40.1686514 L202.031526,40.1686514 C203.684769,41.942444 204.511391,43.9831665 204.511391,46.2908189 L204.511391,46.2908189 L204.511391,46.2908189 C204.511391,48.6156926 202.970086,51.431373 199.887476,54.7378601 L199.887476,54.7378601 L199.887476,54.7378601 C196.787644,58.0443471 193.532821,59.6975907 190.123006,59.6975907 L190.123006,59.6975907 L190.123006,59.6975907 C188.917516,59.6975907 187.815354,59.3617756 186.816519,58.6901454 L186.816519,58.6901454 L186.816519,58.6901454 C178.102548,69.6084412 173.745562,80.3028603 173.745562,90.7734027 L173.745562,90.7734027 L173.745562,90.7734027 C173.745562,94.1832174 174.434414,97.1022256 175.812117,99.530427 L175.812117,99.530427 L175.812117,99.530427 C177.18982,101.958628 179.20471,103.172729 181.856788,103.172729 L181.856788,103.172729 L181.856788,103.172729 C184.508867,103.172729 187.014564,102.673312 189.37388,101.674477 L189.37388,101.674477 L189.37388,101.674477 C191.750418,100.692864 193.765308,99.4787631 195.418552,98.032175 L195.418552,98.032175 L195.418552,98.032175 C198.501162,95.2767692 200.817425,92.6333016 202.367341,90.1017725 L202.367341,90.1017725 L203.193963,88.6293525 L203.193963,88.6293525 C203.400618,82.5674595 204.666383,75.5928384 206.991257,67.705489 L206.991257,67.705489 L206.991257,67.705489 C209.298909,59.8181397 212.381519,52.8176866 216.239088,46.7041298 L216.239088,46.7041298 L216.239088,46.7041298 C220.096656,40.590573 223.90256,37.5337946 227.656801,37.5337946 L227.656801,37.5337946 L227.656801,37.5337946 C229.533921,37.5337946 231.540201,38.6359569 233.67564,40.8402816 L233.67564,40.8402816 L233.67564,40.8402816 C235.828301,43.0446063 236.904632,44.9733904 236.904632,46.626634 L236.904632,46.626634 L236.904632,46.626634 C236.904632,51.1386111 235.087786,57.1143976 231.454094,64.5539935 L231.454094,64.5539935 L231.454094,64.5539935 C227.820403,71.9935894 223.024275,79.0198744 217.065709,85.6328486 L217.065709,85.6328486 L217.065709,85.6328486 C217.065709,92.142495 218.167872,97.1366681 220.372196,100.615368 L220.372196,100.615368 L220.372196,100.615368 C222.576521,104.076847 225.056386,105.807586 227.811792,105.807586 L227.811792,105.807586 L227.811792,105.807586 C234.87252,105.807586 240.822474,101.648645 245.661656,93.3307637 L245.661656,93.3307637 L245.661656,93.3307637 C250.518059,85.0128822 252.94626,74.0773651 252.94626,60.5242124 L252.94626,60.5242124 L252.94626,60.5242124 C252.94626,55.7711373 252.722384,52.0168967 252.27463,49.2614909 L252.27463,49.2614909 L252.27463,49.2614909 C251.844098,46.506085 251.516894,45.1886565 251.293017,45.3092055 L251.293017,45.3092055 L251.293017,45.3092055 C252.722384,43.535413 255.150585,41.9338333 258.577621,40.5044665 L258.577621,40.5044665 L258.577621,40.5044665 C261.987436,39.0750997 265.12171,38.3604163 267.980444,38.3604163 L267.980444,38.3604163 L267.980444,38.3604163 C270.856399,38.3604163 272.871289,39.4109148 274.025115,41.5119118 L274.025115,41.5119118 L274.025115,41.5119118 C275.178942,43.5956875 275.755855,45.9636144 275.755855,48.6156926 L275.755855,48.6156926 L275.755855,48.6156926 C275.755855,54.3503811 274.300656,61.2647277 271.390258,69.3587325 L271.390258,69.3587325 L271.390258,69.3587325 C268.46264,77.4527373 264.682567,85.3056441 260.050041,92.9174529 L260.050041,92.9174529 L260.050041,92.9174529 C255.417515,100.529262 249.717269,106.978634 242.949303,112.265569 L242.949303,112.265569 L242.949303,112.265569 C236.164116,117.552504 229.353097,120.195971 222.516247,120.195971 Z M343.048033,53.7304148 L343.048033,53.7304148 L343.048033,53.7304148 C341.94587,51.9738435 340.456229,50.5444767 338.579109,49.4423144 L338.579109,49.4423144 L338.579109,49.4423144 C336.701989,48.340152 335.160683,47.6771325 333.955193,47.4532557 L333.955193,47.4532557 L331.966135,47.1174407 L331.966135,47.1174407 C324.027122,51.9738435 316.725296,59.6631481 310.060658,70.1853543 L310.060658,70.1853543 L310.060658,70.1853543 C303.39602,80.7075605 300.063701,90.3256492 300.063701,99.0396203 L300.063701,99.0396203 L300.063701,99.0396203 C300.063701,100.916741 300.528676,102.371939 301.458625,103.405217 L301.458625,103.405217 L301.458625,103.405217 C302.405796,104.455715 303.482126,104.980964 304.687617,104.980964 L304.687617,104.980964 L304.687617,104.980964 C307.890776,104.980964 311.472803,103.551597 315.433699,100.692864 L315.433699,100.692864 L315.433699,100.692864 C319.411817,97.816909 322.606365,94.9495647 325.017346,92.0908311 L325.017346,92.0908311 L328.659648,87.8027307 L328.659648,87.8027307 C331.415054,77.6593928 336.211182,66.3019541 343.048033,53.7304148 Z M327.187228,99.1946119 L327.187228,99.1946119 L327.187228,99.1946119 C327.066679,99.3151609 326.291721,100.202057 324.862354,101.855301 L324.862354,101.855301 L324.862354,101.855301 C323.432987,103.508544 321.753912,105.299558 319.825128,107.228342 L319.825128,107.228342 L319.825128,107.228342 C317.896343,109.157126 315.666187,111.163406 313.134658,113.247182 L313.134658,113.247182 L313.134658,113.247182 C307.27942,117.879708 301.544732,120.195971 295.930592,120.195971 L295.930592,120.195971 L295.930592,120.195971 C290.316453,120.195971 286.097237,118.491064 283.272946,115.081249 L283.272946,115.081249 L283.272946,115.081249 C280.465877,111.654213 279.062342,106.582544 279.062342,99.8662421 L279.062342,99.8662421 L279.062342,99.8662421 C279.062342,93.132719 281.817748,84.7028991 287.328559,74.5767824 L287.328559,74.5767824 L287.328559,74.5767824 C292.839371,64.4334445 299.839824,55.6161457 308.329919,48.1248859 L308.329919,48.1248859 L308.329919,48.1248859 C316.820013,40.6164049 324.759026,36.8621644 332.146958,36.8621644 L332.146958,36.8621644 L332.146958,36.8621644 C335.453445,36.8621644 338.561888,37.6887861 341.472285,39.3420297 L341.472285,39.3420297 L341.472285,39.3420297 C344.399904,40.9952732 346.526733,42.9240573 347.852772,45.128382 L347.852772,45.128382 L347.852772,45.128382 C354.79295,34.2273075 360.519028,28.7767702 365.031005,28.7767702 L365.031005,28.7767702 L365.031005,28.7767702 C367.23533,28.7767702 369.11245,29.9564284 370.662366,32.3157447 L370.662366,32.3157447 L370.662366,32.3157447 C372.195061,34.6922822 372.961408,37.4476881 372.961408,40.5819623 L372.961408,40.5819623 L372.961408,40.5819623 C372.961408,43.7334578 370.481543,49.4681463 365.521812,57.7860278 L365.521812,57.7860278 L365.521812,57.7860278 C360.562081,66.1039093 354.448525,74.6714995 347.181142,83.4887984 L347.181142,83.4887984 L347.181142,83.4887984 C346.302856,87.1224899 345.863713,91.8066799 345.863713,97.5413684 L345.863713,97.5413684 L345.863713,97.5413684 C345.863713,105.256505 347.9561,109.114073 352.140872,109.114073 L352.140872,109.114073 L352.140872,109.114073 C354.896278,109.114073 358.426642,107.796645 362.731964,105.161788 L362.731964,105.161788 L364.876014,103.818527 L364.876014,103.818527 C365.203218,103.818527 365.780131,104.481547 366.606753,105.807586 L366.606753,105.807586 L366.606753,105.807586 C367.433375,107.133625 367.846686,108.158292 367.846686,108.881586 L367.846686,108.881586 L367.846686,108.881586 C367.846686,109.587658 366.744523,110.827591 364.540199,112.601384 L364.540199,112.601384 L364.540199,112.601384 C362.335874,114.357955 359.167157,116.088694 355.034048,117.793602 L355.034048,117.793602 L355.034048,117.793602 C350.90094,119.498509 346.741999,120.350963 342.557226,120.350963 L342.557226,120.350963 L342.557226,120.350963 C332.310561,120.350963 327.187228,113.298846 327.187228,99.1946119 Z" id="Shape"></path>
            </g>
            <g id="text-2" transform="translate(159.545234, 209.503842)" fill="#454849" fill-rule="nonzero">
                <path d="M7.10031226,2.5155392 L7.10031226,2.5155392 L7.10031226,2.5155392 C8.61504555,2.62373444 9.98101038,2.67783205 11.1982068,2.67783205 L11.1982068,2.67783205 L11.1982068,2.67783205 C12.4154032,2.67783205 13.9977585,2.52906361 15.9452727,2.23152671 L15.9452727,2.23152671 L15.9452727,2.23152671 C16.0534679,2.23152671 16.188712,2.36677075 16.3510048,2.63725884 L16.3510048,2.63725884 L16.3510048,2.63725884 C16.5132977,2.90774693 16.5944441,3.11061299 16.5944441,3.24585703 L16.5944441,3.24585703 L16.5944441,3.24585703 C16.0805167,5.22042006 15.2961013,7.45194678 14.2411977,9.94043717 L14.2411977,9.94043717 L14.2411977,9.94043717 C13.1862942,12.4289276 12.5371228,13.9842341 12.2936835,14.6063567 L12.2936835,14.6063567 L12.6182692,14.6063567 L12.6182692,14.6063567 C15.0797108,10.9818163 17.6673802,8.01997176 20.3812773,5.72082302 L20.3812773,5.72082302 L20.3812773,5.72082302 C23.1041907,3.42167429 25.3447337,2.27209992 27.1029062,2.27209992 L27.1029062,2.27209992 L27.1029062,2.27209992 C28.0766633,2.27209992 28.8295219,2.52455547 29.3614818,3.02946657 L29.3614818,3.02946657 L29.3614818,3.02946657 C29.8844254,3.52536139 30.1458972,4.20608974 30.1458972,5.07165162 L30.1458972,5.07165162 L30.1458972,5.07165162 C30.1458972,5.93721349 29.9295067,6.72613708 29.4967258,7.43842237 L29.4967258,7.43842237 L29.4967258,7.43842237 C29.0639449,8.15972393 28.6717371,8.52037472 28.3201026,8.52037472 L28.3201026,8.52037472 L28.3201026,8.52037472 C28.266005,8.52037472 27.9684681,8.35808186 27.4274919,8.03349616 L27.4274919,8.03349616 L27.4274919,8.03349616 C26.8865158,7.70891046 26.3996372,7.54661761 25.9668563,7.54661761 L25.9668563,7.54661761 L25.9668563,7.54661761 C24.5603182,7.54661761 22.9013246,8.19578901 20.9898755,9.49413183 L20.9898755,9.49413183 L20.9898755,9.49413183 C19.0874426,10.7924746 17.3788595,12.3883543 15.8641263,14.281771 L15.8641263,14.281771 L15.8641263,14.281771 C16.4592,17.9874577 17.1714853,20.9087291 18.0009821,23.0455849 L18.0009821,23.0455849 L18.0009821,23.0455849 C18.8214627,25.1824408 19.9079231,26.2508688 21.2603636,26.2508688 L21.2603636,26.2508688 L21.2603636,26.2508688 C22.2611695,26.2508688 23.2349266,25.858661 24.1816349,25.0742456 L24.1816349,25.0742456 L24.1816349,25.0742456 C24.452123,25.2635873 24.587367,25.6016974 24.587367,26.0885759 L24.587367,26.0885759 L24.587367,26.0885759 C24.587367,26.9541378 24.0689315,27.8332241 23.0320605,28.7258348 L23.0320605,28.7258348 L23.0320605,28.7258348 C21.9861733,29.6184454 20.7329118,30.0647508 19.2722761,30.0647508 L19.2722761,30.0647508 L19.2722761,30.0647508 C17.8116405,30.0647508 16.6530498,29.7672139 15.7965042,29.1721401 L15.7965042,29.1721401 L15.7965042,29.1721401 C14.9489749,28.5770663 14.3223442,27.6844556 13.916612,26.494308 L13.916612,26.494308 L13.916612,26.494308 C13.1592454,24.384501 12.7535133,21.4226564 12.6994156,17.6087744 L12.6994156,17.6087744 L9.94043717,21.2197904 L9.94043717,21.2197904 C8.80438721,23.7894272 7.73595927,25.8361204 6.73515335,27.3598699 L6.73515335,27.3598699 L6.73515335,27.3598699 C5.73434743,28.8926357 4.78763913,29.6590187 3.89502844,29.6590187 L3.89502844,29.6590187 L3.89502844,29.6590187 C3.00241776,29.6590187 2.12783961,29.4832014 1.27129401,29.1315669 L1.27129401,29.1315669 L1.27129401,29.1315669 C0.423764668,28.7799324 0,28.198383 0,27.3869187 L0,27.3869187 L0,27.3869187 C0,26.6566009 0.703269024,25.4664533 2.10980707,23.816476 L2.10980707,23.816476 L2.10980707,23.816476 C2.59668563,23.248451 3.35405227,22.3964135 4.381907,21.2603636 L4.381907,21.2603636 L4.381907,21.2603636 C8.1416914,12.7399889 10.0215836,7.62776403 10.0215836,5.92368909 L10.0215836,5.92368909 L10.0215836,5.92368909 C10.0215836,5.59910338 9.61585146,5.28353395 8.80438721,4.97698079 L8.80438721,4.97698079 L8.80438721,4.97698079 C7.99292295,4.66141135 7.33022714,4.50362664 6.81629977,4.50362664 L6.81629977,4.50362664 L6.81629977,4.50362664 C6.57286049,4.50362664 6.45114086,4.33231751 6.45114086,3.98969927 L6.45114086,3.98969927 L6.45114086,3.98969927 C6.45114086,3.6560973 6.54130355,3.32700346 6.72162894,3.00241776 L6.72162894,3.00241776 L6.72162894,3.00241776 C6.89293806,2.67783205 7.01916584,2.5155392 7.10031226,2.5155392 Z M35.826147,12.3748299 L35.826147,12.3748299 L35.826147,12.3748299 C35.1769756,12.9428549 34.4151008,13.8625144 33.5405227,15.1338084 L33.5405227,15.1338084 L33.5405227,15.1338084 C32.6569283,16.4051024 32.0257894,17.59525 31.6471061,18.7042512 L31.6471061,18.7042512 L31.6471061,18.7042512 C33.1618394,18.5690071 34.487231,18.3120434 35.623281,17.9333601 L35.623281,17.9333601 L35.623281,17.9333601 C36.7593309,17.5546768 37.5843196,17.1354203 38.0982469,16.6755905 L38.0982469,16.6755905 L38.0982469,16.6755905 C39.1261017,15.7829798 39.640029,14.9805318 39.640029,14.2682465 L39.640029,14.2682465 L39.640029,14.2682465 C39.640029,13.546945 39.437163,12.9834281 39.0314308,12.577696 L39.0314308,12.577696 L39.0314308,12.577696 C38.6256987,12.1719639 38.1162795,11.9690978 37.5031732,11.9690978 L37.5031732,11.9690978 L37.5031732,11.9690978 C36.8990831,11.9690978 36.3400744,12.1043419 35.826147,12.3748299 Z M31.2008007,20.6517654 L31.2008007,20.6517654 L31.2008007,20.6517654 C31.1467031,21.2468392 31.1196543,21.5984737 31.1196543,21.7066689 L31.1196543,21.7066689 L31.1196543,21.7066689 C31.1196543,22.8968165 31.376618,23.8886061 31.8905454,24.6820379 L31.8905454,24.6820379 L31.8905454,24.6820379 C32.4044727,25.4844859 33.2024126,25.8857099 34.2843649,25.8857099 L34.2843649,25.8857099 L34.2843649,25.8857099 C36.3671232,25.8857099 38.2199666,25.2094896 39.8428951,23.8570492 L39.8428951,23.8570492 L39.8428951,23.8570492 C39.8699439,23.8300004 39.9510903,23.816476 40.0863344,23.816476 L40.0863344,23.816476 L40.0863344,23.816476 C40.2215784,23.816476 40.3973957,23.9246712 40.6137861,24.1410617 L40.6137861,24.1410617 L40.6137861,24.1410617 C40.8301766,24.3574522 40.9383718,24.587367 40.9383718,24.8308063 L40.9383718,24.8308063 L40.9383718,24.8308063 C40.9383718,25.0742456 40.5326397,25.5746486 39.7211755,26.3320152 L39.7211755,26.3320152 L39.7211755,26.3320152 C38.9097112,27.0893818 37.7466124,27.8332241 36.2318791,28.5635419 L36.2318791,28.5635419 L36.2318791,28.5635419 C34.7171459,29.2938597 33.1888882,29.6590187 31.6471061,29.6590187 L31.6471061,29.6590187 L31.6471061,29.6590187 C30.105324,29.6590187 28.8250137,29.1450913 27.8061753,28.1172366 L27.8061753,28.1172366 L27.8061753,28.1172366 C26.7963531,27.0893818 26.291442,25.7369414 26.291442,24.0599153 L26.291442,24.0599153 L26.291442,24.0599153 C26.291442,22.3828891 26.6971741,20.6652898 27.5086384,18.9071172 L27.5086384,18.9071172 L27.5086384,18.9071172 C28.3201026,17.1489447 29.3659899,15.5395406 30.6463002,14.0789049 L30.6463002,14.0789049 L30.6463002,14.0789049 C31.9356267,12.6182692 33.4593763,11.4010728 35.2175488,10.4273157 L35.2175488,10.4273157 L35.2175488,10.4273157 C36.9757214,9.45355861 38.5851255,8.96668006 40.0457612,8.96668006 L40.0457612,8.96668006 L40.0457612,8.96668006 C41.5063968,8.96668006 42.6379387,9.28675763 43.4403866,9.92691276 L43.4403866,9.92691276 L43.4403866,9.92691276 C44.2338184,10.5580516 44.6305342,11.441646 44.6305342,12.577696 L44.6305342,12.577696 L44.6305342,12.577696 C44.6305342,14.0383317 44.1571801,15.3772477 43.2104718,16.5944441 L43.2104718,16.5944441 L43.2104718,16.5944441 C41.2088599,19.0829345 37.2056363,20.4353749 31.2008007,20.6517654 Z M58.7500123,12.9834281 L58.7500123,12.9834281 L58.7500123,12.9834281 C58.371329,13.1727698 57.600438,14.0698886 56.4373392,15.6747846 L56.4373392,15.6747846 L56.4373392,15.6747846 C55.2742404,17.2886968 54.3816297,18.6772024 53.7595071,19.8403011 L53.7595071,19.8403011 L53.7595071,19.8403011 C53.1373845,22.545182 52.2808389,24.8443307 51.1898703,26.7377473 L51.1898703,26.7377473 L51.1898703,26.7377473 C50.0898854,28.6311639 49.1972747,29.5778722 48.5120383,29.5778722 L48.5120383,29.5778722 L48.5120383,29.5778722 C47.8177855,29.5778722 47.1009921,29.4516445 46.361658,29.1991889 L46.361658,29.1991889 L46.361658,29.1991889 C45.6133076,28.9377171 45.2391324,28.5500175 45.2391324,28.0360901 L45.2391324,28.0360901 L45.2391324,28.0360901 C45.2391324,27.1164306 45.5997832,25.9533319 46.3210848,24.5467938 L46.3210848,24.5467938 L46.3210848,24.5467938 C47.0333701,23.1402558 47.7546716,21.9636326 48.4849895,21.0169243 L48.4849895,21.0169243 L49.539893,19.5968618 L49.539893,19.5968618 C50.0808692,17.7575429 50.3513572,15.7424066 50.3513572,13.5514531 L50.3513572,13.5514531 L50.3513572,13.5514531 C50.3513572,12.577696 50.1484912,12.0908175 49.7427591,12.0908175 L49.7427591,12.0908175 L49.7427591,12.0908175 C49.4452222,12.0908175 49.0800632,12.208029 48.6472823,12.442452 L48.6472823,12.442452 L48.6472823,12.442452 C48.2145014,12.6678587 47.9304889,12.7805621 47.7952448,12.7805621 L47.7952448,12.7805621 L47.7952448,12.7805621 C47.6600008,12.7805621 47.5112323,12.6182692 47.3489395,12.2936835 L47.3489395,12.2936835 L47.3489395,12.2936835 C47.1866466,11.9690978 47.1055002,11.7211504 47.1055002,11.5498413 L47.1055002,11.5498413 L47.1055002,11.5498413 C47.1055002,11.3695159 47.4120534,11.071979 48.0251597,10.6572306 L48.0251597,10.6572306 L48.0251597,10.6572306 C48.6292498,10.2334659 49.4452222,9.81871753 50.4730769,9.4129854 L50.4730769,9.4129854 L50.4730769,9.4129854 C51.5009316,9.00725327 52.4611643,8.80438721 53.353775,8.80438721 L53.353775,8.80438721 L53.353775,8.80438721 C53.7595071,8.80438721 54.1066335,9.18307053 54.3951541,9.94043717 L54.3951541,9.94043717 L54.3951541,9.94043717 C54.6746585,10.6978038 54.8144107,11.5047599 54.8144107,12.3613055 L54.8144107,12.3613055 L54.8144107,12.3613055 C54.8144107,13.2088349 54.8008863,13.8444819 54.7738375,14.2682465 L54.7738375,14.2682465 L54.7738375,14.2682465 C54.7467886,14.6829949 54.7332642,14.9715156 54.7332642,15.1338084 L54.7332642,15.1338084 L54.7332642,15.1338084 C55.7340702,13.3756359 56.8791364,11.8879514 58.1684629,10.670755 L58.1684629,10.670755 L58.1684629,10.670755 C59.4487732,9.45355861 60.6704777,8.84496042 61.8335765,8.84496042 L61.8335765,8.84496042 L61.8335765,8.84496042 C62.9966753,8.84496042 63.8667453,9.15602172 64.4437865,9.77814432 L64.4437865,9.77814432 L64.4437865,9.77814432 C65.0298441,10.4002669 65.3228728,11.2658288 65.3228728,12.3748299 L65.3228728,12.3748299 L65.3228728,12.3748299 C65.3228728,13.8895632 64.5655062,15.3772477 63.0507729,16.8378834 L63.0507729,16.8378834 L63.0507729,16.8378834 C61.5360396,18.298519 60.2241724,19.0288369 59.1151712,19.0288369 L59.1151712,19.0288369 L59.1151712,19.0288369 C58.5741951,19.0288369 58.303707,18.8530196 58.303707,18.5013851 L58.303707,18.5013851 L58.303707,18.5013851 C58.303707,18.4202387 58.5155893,17.9468845 58.939354,17.0813226 L58.939354,17.0813226 L58.939354,17.0813226 C59.3541024,16.2157608 59.5614766,15.3186419 59.5614766,14.3899662 L59.5614766,14.3899662 L59.5614766,14.3899662 C59.5614766,13.4522742 59.2909885,12.9834281 58.7500123,12.9834281 Z M79.8075098,13.3485871 L79.8075098,13.3485871 L79.8075098,13.3485871 C79.5370218,12.9158061 79.1718628,12.5641716 78.7120331,12.2936835 L78.7120331,12.2936835 L78.7120331,12.2936835 C78.2522033,12.0231954 77.87352,11.8609026 77.5759831,11.806805 L77.5759831,11.806805 L77.0891046,11.7256585 L77.0891046,11.7256585 C75.1415904,12.9158061 73.3518608,14.8002065 71.7199161,17.3788595 L71.7199161,17.3788595 L71.7199161,17.3788595 C70.078955,19.9665289 69.2584745,22.3287915 69.2584745,24.4656474 L69.2584745,24.4656474 L69.2584745,24.4656474 C69.2584745,24.9254771 69.375686,25.2816198 69.610109,25.5340753 L69.610109,25.5340753 L69.610109,25.5340753 C69.8355157,25.7955472 70.0969875,25.9262831 70.3945244,25.9262831 L70.3945244,25.9262831 L70.3945244,25.9262831 C71.1789399,25.9262831 72.0580262,25.5746486 73.0317833,24.8713795 L73.0317833,24.8713795 L73.0317833,24.8713795 C74.0055404,24.1681105 74.7899558,23.4648415 75.3850296,22.7615725 L75.3850296,22.7615725 L76.2776403,21.7066689 L76.2776403,21.7066689 C76.9538605,19.2181785 78.1304837,16.4321512 79.8075098,13.3485871 Z M75.9124814,24.5062206 L75.9124814,24.5062206 L75.9124814,24.5062206 C75.8854326,24.5332694 75.6960909,24.7496599 75.3444564,25.155392 L75.3444564,25.155392 L75.3444564,25.155392 C74.9928219,25.5611241 74.5825816,26.0029214 74.1137356,26.4807836 L74.1137356,26.4807836 L74.1137356,26.4807836 C73.6358733,26.9496297 73.0858809,27.4410163 72.4637583,27.9549437 L72.4637583,27.9549437 L72.4637583,27.9549437 C71.0301714,29.0909937 69.6236334,29.6590187 68.2441442,29.6590187 L68.2441442,29.6590187 L68.2441442,29.6590187 C66.8646549,29.6590187 65.832292,29.2397621 65.1470556,28.4012491 L65.1470556,28.4012491 L65.1470556,28.4012491 C64.4528028,27.562736 64.1056764,26.3184908 64.1056764,24.6685135 L64.1056764,24.6685135 L64.1056764,24.6685135 C64.1056764,23.0185361 64.7818966,20.9493023 66.1343371,18.4608119 L66.1343371,18.4608119 L66.1343371,18.4608119 C67.4867775,15.9723215 69.2043769,13.8084168 71.2871351,11.9690978 L71.2871351,11.9690978 L71.2871351,11.9690978 C73.3698934,10.1297788 75.3174076,9.21011934 77.1296778,9.21011934 L77.1296778,9.21011934 L77.1296778,9.21011934 C77.941142,9.21011934 78.707525,9.4129854 79.4288265,9.81871753 L79.4288265,9.81871753 L79.4288265,9.81871753 C80.1411118,10.2244497 80.6595473,10.6978038 80.984133,11.23878 L80.984133,11.23878 L80.984133,11.23878 C82.688208,8.56094793 84.094746,7.2220319 85.2037472,7.2220319 L85.2037472,7.2220319 L85.2037472,7.2220319 C85.7447233,7.2220319 86.2045531,7.51506066 86.5832364,8.10111818 L86.5832364,8.10111818 L86.5832364,8.10111818 C86.9619197,8.67815943 87.1512614,9.35437965 87.1512614,10.1297788 L87.1512614,10.1297788 L87.1512614,10.1297788 C87.1512614,10.8961617 86.5426632,12.2981917 85.3254668,14.3358686 L85.3254668,14.3358686 L85.3254668,14.3358686 C84.1082704,16.3825618 82.6070615,18.4878607 80.8218402,20.6517654 L80.8218402,20.6517654 L80.8218402,20.6517654 C80.6054497,21.5443761 80.4972545,22.6939504 80.4972545,24.1004885 L80.4972545,24.1004885 L80.4972545,24.1004885 C80.4972545,25.9939051 81.0111818,26.9406134 82.0390365,26.9406134 L82.0390365,26.9406134 L82.0390365,26.9406134 C82.7152568,26.9406134 83.5808186,26.6160277 84.6357222,25.9668563 L84.6357222,25.9668563 L85.1631739,25.6422706 L85.1631739,25.6422706 C85.2443204,25.6422706 85.3885807,25.8045634 85.5959549,26.1291491 L85.5959549,26.1291491 L85.5959549,26.1291491 C85.7943128,26.4537348 85.8934918,26.7061904 85.8934918,26.8865158 L85.8934918,26.8865158 L85.8934918,26.8865158 C85.8934918,27.0578249 85.6230037,27.3598699 85.0820275,27.7926509 L85.0820275,27.7926509 L85.0820275,27.7926509 C84.5410513,28.2254318 83.7656522,28.6491965 82.75583,29.0639449 L82.75583,29.0639449 L82.75583,29.0639449 C81.7369915,29.4877095 80.7136449,29.6995919 79.6857902,29.6995919 L79.6857902,29.6995919 L79.6857902,29.6995919 C77.170251,29.6995919 75.9124814,27.9684681 75.9124814,24.5062206 Z M97.172845,18.6636779 L97.172845,18.6636779 L97.172845,18.6636779 C96.5777712,21.3685588 95.6716361,23.8660655 94.4544397,26.1561979 L94.4544397,26.1561979 L94.4544397,26.1561979 C93.2372433,28.4373141 92.290535,29.5778722 91.6143148,29.5778722 L91.6143148,29.5778722 L91.6143148,29.5778722 C90.9380946,29.5778722 90.2258093,29.4516445 89.4774589,29.1991889 L89.4774589,29.1991889 L89.4774589,29.1991889 C88.7381248,28.9377171 88.3684578,28.5500175 88.3684578,28.0360901 L88.3684578,28.0360901 L88.3684578,28.0360901 C88.3684578,27.1164306 88.7246004,25.9533319 89.4368857,24.5467938 L89.4368857,24.5467938 L89.4368857,24.5467938 C90.1581873,23.1402558 90.883997,21.9636326 91.6143148,21.0169243 L91.6143148,21.0169243 L92.6692183,19.5968618 L92.6692183,19.5968618 C93.2101945,17.7575429 93.4806826,15.7424066 93.4806826,13.5514531 L93.4806826,13.5514531 L93.4806826,13.5514531 C93.4806826,12.577696 93.2778165,12.0908175 92.8720844,12.0908175 L92.8720844,12.0908175 L92.8720844,12.0908175 C92.5745475,12.0908175 92.2093886,12.208029 91.7766077,12.442452 L91.7766077,12.442452 L91.7766077,12.442452 C91.3438267,12.6678587 91.0598142,12.7805621 90.9245702,12.7805621 L90.9245702,12.7805621 L90.9245702,12.7805621 C90.7893261,12.7805621 90.6405577,12.6182692 90.4782648,12.2936835 L90.4782648,12.2936835 L90.4782648,12.2936835 C90.315972,11.9690978 90.2348256,11.7211504 90.2348256,11.5498413 L90.2348256,11.5498413 L90.2348256,11.5498413 C90.2348256,11.3695159 90.5413787,11.071979 91.1544851,10.6572306 L91.1544851,10.6572306 L91.1544851,10.6572306 C91.7585751,10.2334659 92.5745475,9.81871753 93.6024022,9.4129854 L93.6024022,9.4129854 L93.6024022,9.4129854 C94.630257,9.00725327 95.5904897,8.80438721 96.4831004,8.80438721 L96.4831004,8.80438721 L96.4831004,8.80438721 C96.8888325,8.80438721 97.2359589,9.16954612 97.5244795,9.89986396 L97.5244795,9.89986396 L97.5244795,9.89986396 C97.8039838,10.6301818 97.943736,11.4236135 97.943736,12.2801591 L97.943736,12.2801591 L97.943736,12.2801591 C97.943736,13.1276885 97.9166872,14.0383317 97.8625896,15.0120888 L97.8625896,15.0120888 L97.8625896,15.0120888 C98.6199562,13.713746 99.9678885,12.3613055 101.906386,10.9547675 L101.906386,10.9547675 L101.906386,10.9547675 C103.835868,9.54822944 105.382158,8.84496042 106.545257,8.84496042 L106.545257,8.84496042 L106.545257,8.84496042 C107.708356,8.84496042 108.560393,9.15602172 109.10137,9.77814432 L109.10137,9.77814432 L109.10137,9.77814432 C109.642346,10.4002669 109.912834,11.1982068 109.912834,12.1719639 L109.912834,12.1719639 L109.912834,12.1719639 C109.912834,13.6325995 109.150959,16.1210899 107.62721,19.6374351 L107.62721,19.6374351 L107.62721,19.6374351 C106.094444,23.1537802 105.328061,25.3853069 105.328061,26.3320152 L105.328061,26.3320152 L105.328061,26.3320152 C105.328061,26.6566009 105.463305,26.8188937 105.733793,26.8188937 L105.733793,26.8188937 L105.733793,26.8188937 C106.410013,26.8188937 107.221477,26.494308 108.168186,25.8451366 L108.168186,25.8451366 L108.614491,25.5205509 L108.614491,25.5205509 C108.776784,25.5205509 108.939077,25.6828438 109.10137,26.0074295 L109.10137,26.0074295 L109.10137,26.0074295 C109.263662,26.3320152 109.344809,26.5889789 109.344809,26.7783205 L109.344809,26.7783205 L109.344809,26.7783205 C109.344809,26.9676622 109.069813,27.2787235 108.51982,27.7115044 L108.51982,27.7115044 L108.51982,27.7115044 C107.960811,28.1442854 107.135823,28.5770663 106.044854,29.0098472 L106.044854,29.0098472 L106.044854,29.0098472 C104.944869,29.4426282 103.813327,29.6590187 102.650229,29.6590187 L102.650229,29.6590187 L102.650229,29.6590187 C100.892056,29.6590187 100.01297,28.9287008 100.01297,27.4680652 L100.01297,27.4680652 L100.01297,27.4680652 C100.01297,26.5484057 100.720747,24.4205661 102.136301,21.0845463 L102.136301,21.0845463 L102.136301,21.0845463 C103.560872,17.7395103 104.273157,15.2961013 104.273157,13.7543192 L104.273157,13.7543192 L104.273157,13.7543192 C104.273157,13.4026847 104.205535,13.1186722 104.070291,12.9022817 L104.070291,12.9022817 L104.070291,12.9022817 C103.935047,12.6858912 103.718657,12.5506472 103.42112,12.4965496 L103.42112,12.4965496 L103.42112,12.4965496 C103.123583,12.6858912 102.722359,12.9518712 102.217448,13.2944894 L102.217448,13.2944894 L102.217448,13.2944894 C101.721553,13.6280914 100.919105,14.3313604 99.8101038,15.4042965 L99.8101038,15.4042965 L99.8101038,15.4042965 C98.7011027,16.4682163 97.8220164,17.5546768 97.172845,18.6636779 Z M127.846194,13.4297335 L127.846194,13.4297335 L127.846194,13.4297335 C127.575706,12.9969525 127.210547,12.645318 126.750717,12.3748299 L126.750717,12.3748299 L126.750717,12.3748299 C126.290887,12.1043419 125.912204,11.942049 125.614667,11.8879514 L125.614667,11.8879514 L125.127789,11.806805 L125.127789,11.806805 C123.180274,12.9969525 121.390545,14.885861 119.7586,17.4735304 L119.7586,17.4735304 L119.7586,17.4735304 C118.117639,20.0521835 117.297159,22.4099379 117.297159,24.5467938 L117.297159,24.5467938 L117.297159,24.5467938 C117.297159,25.0066236 117.41437,25.3627662 117.648793,25.6152218 L117.648793,25.6152218 L117.648793,25.6152218 C117.8742,25.8766936 118.135672,26.0074295 118.433209,26.0074295 L118.433209,26.0074295 L118.433209,26.0074295 C119.217624,26.0074295 120.09671,25.655795 121.070467,24.952526 L121.070467,24.952526 L121.070467,24.952526 C122.044224,24.2492569 122.82864,23.5459879 123.423714,22.8427189 L123.423714,22.8427189 L124.316324,21.7878153 L124.316324,21.7878153 C124.992545,19.299325 126.169168,16.5132977 127.846194,13.4297335 Z M130.645746,18.4608119 L130.645746,18.4608119 L130.645746,18.4608119 C128.346597,26.494308 125.763436,32.1880823 122.896262,35.5421345 L122.896262,35.5421345 L122.896262,35.5421345 C120.21843,38.6797963 117.188963,40.2486272 113.807862,40.2486272 L113.807862,40.2486272 L113.807862,40.2486272 C112.428373,40.2486272 111.048884,39.9646147 109.669395,39.3965898 L109.669395,39.3965898 L109.669395,39.3965898 C108.966126,39.1261017 108.398101,38.6978289 107.96532,38.1117713 L107.96532,38.1117713 L107.96532,38.1117713 C107.532539,37.5347301 107.316148,36.8540017 107.316148,36.0695863 L107.316148,36.0695863 L107.316148,36.0695863 C107.316148,34.6359994 107.897698,33.3917542 109.060796,32.3368507 L109.060796,32.3368507 L109.060796,32.3368507 C110.223895,31.2819472 111.292323,30.7544954 112.26608,30.7544954 L112.26608,30.7544954 L112.26608,30.7544954 C112.698861,30.7544954 112.915252,30.8897394 112.915252,31.1602275 L112.915252,31.1602275 L112.915252,31.1602275 C112.915252,31.1872763 112.793532,31.6065329 112.550093,32.4179971 L112.550093,32.4179971 L112.550093,32.4179971 C112.306653,33.2294614 112.184934,34.0048606 112.184934,34.7441947 L112.184934,34.7441947 L112.184934,34.7441947 C112.184934,35.492545 112.414849,36.1777815 112.874678,36.7999041 L112.874678,36.7999041 L112.874678,36.7999041 C113.334508,37.4220267 114.051302,37.733088 115.025059,37.733088 L115.025059,37.733088 L115.025059,37.733088 C115.998816,37.733088 116.972573,37.3093234 117.94633,36.461794 L117.94633,36.461794 L117.94633,36.461794 C118.920087,35.6052484 119.718027,34.5683774 120.34015,33.351181 L120.34015,33.351181 L120.34015,33.351181 C121.611444,30.8626906 122.504054,28.6041151 123.017982,26.5754545 L123.017982,26.5754545 L123.342567,25.3176849 L123.342567,25.3176849 C123.342567,25.2906361 123.356092,25.2635873 123.383141,25.2365384 L123.383141,25.2365384 L123.383141,25.2365384 C120.732357,28.2389562 118.297965,29.7401651 116.079962,29.7401651 L116.079962,29.7401651 L116.079962,29.7401651 C114.835717,29.7401651 113.870976,29.3209085 113.18574,28.4823955 L113.18574,28.4823955 L113.18574,28.4823955 C112.491487,27.6438824 112.144361,26.3996372 112.144361,24.7496599 L112.144361,24.7496599 L112.144361,24.7496599 C112.144361,23.0996826 112.820581,21.0304487 114.173021,18.5419583 L114.173021,18.5419583 L114.173021,18.5419583 C115.525462,16.0534679 117.243061,13.8895632 119.325819,12.0502442 L119.325819,12.0502442 L119.325819,12.0502442 C121.408577,10.2109253 123.356092,9.29126576 125.168362,9.29126576 L125.168362,9.29126576 L125.168362,9.29126576 C125.979826,9.29126576 126.746209,9.49413183 127.467511,9.89986396 L127.467511,9.89986396 L127.467511,9.89986396 C128.179796,10.3055961 128.698231,10.7789502 129.022817,11.3199264 L129.022817,11.3199264 L129.022817,11.3199264 C130.726892,8.64209435 132.13343,7.30317833 133.242431,7.30317833 L133.242431,7.30317833 L133.242431,7.30317833 C133.783407,7.30317833 134.243237,7.59620709 134.621921,8.18226461 L134.621921,8.18226461 L134.621921,8.18226461 C135.000604,8.75930586 135.189945,9.34536338 135.189945,9.94043717 L135.189945,9.94043717 L135.189945,9.94043717 C135.189945,11.5363169 133.675212,14.3764418 130.645746,18.4608119 Z M138.638669,0.68974462 L138.638669,0.68974462 L143.304588,0.852037472 L143.304588,0.852037472 C144.494736,0.852037472 145.396363,0.712285294 146.009469,0.432780938 L146.009469,0.432780938 L146.009469,0.432780938 C146.613559,0.144260313 146.965194,0 147.064372,0 L147.064372,0 L147.064372,0 C147.154535,0 147.26273,0.108195234 147.388958,0.324585703 L147.388958,0.324585703 L147.388958,0.324585703 C147.50617,0.540976172 147.564775,0.703269024 147.564775,0.811464259 L147.564775,0.811464259 L147.564775,0.811464259 C147.564775,3.00241776 145.64431,7.80358129 141.803379,15.2149548 L141.803379,15.2149548 L142.006245,15.3772477 L142.006245,15.3772477 C143.818515,13.213343 145.454968,11.5813982 146.915604,10.4814133 L146.915604,10.4814133 L146.915604,10.4814133 C148.37624,9.39044473 149.945071,8.84496042 151.622097,8.84496042 L151.622097,8.84496042 L151.622097,8.84496042 C152.785195,8.84496042 153.664282,9.18307053 154.259356,9.85929074 L154.259356,9.85929074 L154.259356,9.85929074 C154.854429,10.535511 155.151966,11.4551705 155.151966,12.6182692 L155.151966,12.6182692 L155.151966,12.6182692 C155.151966,13.781368 154.899511,14.8227471 154.3946,15.7424066 L154.3946,15.7424066 L154.3946,15.7424066 C153.898705,16.6620661 153.177403,17.4329572 152.230695,18.0550798 L152.230695,18.0550798 L152.230695,18.0550798 C150.688913,19.0829345 148.741399,19.9890696 146.388152,20.773485 L146.388152,20.773485 L146.388152,20.773485 C146.496347,21.8283886 146.942653,23.0951744 147.727068,24.5738426 L147.727068,24.5738426 L147.727068,24.5738426 C148.511484,26.0434946 149.282375,26.7783205 150.039741,26.7783205 L150.039741,26.7783205 L150.039741,26.7783205 C150.797108,26.7783205 151.78439,26.4402104 153.001586,25.7639902 L153.001586,25.7639902 L153.001586,25.7639902 C153.163879,25.7639902 153.290107,25.8992343 153.380269,26.1697223 L153.380269,26.1697223 L153.380269,26.1697223 C153.479448,26.4402104 153.529038,26.6701253 153.529038,26.859467 L153.529038,26.859467 L153.529038,26.859467 C152.906915,27.69798 151.933158,28.4823955 150.607766,29.2127133 L150.607766,29.2127133 L150.607766,29.2127133 C149.282375,29.9430311 147.956983,30.3081901 146.631592,30.3081901 L146.631592,30.3081901 L146.631592,30.3081901 C145.793078,30.3081901 145.121366,29.9249986 144.616455,29.1586157 L144.616455,29.1586157 L144.616455,29.1586157 C144.12056,28.3832165 143.777942,27.4139675 143.588601,26.2508688 L143.588601,26.2508688 L143.588601,26.2508688 C143.399259,25.08777 143.264015,23.6000855 143.182868,21.7878153 L143.182868,21.7878153 L143.182868,21.7878153 C143.047624,21.7878153 142.925905,21.7562584 142.81771,21.6931445 L142.81771,21.6931445 L142.81771,21.6931445 C142.709514,21.6210144 142.610335,21.5669167 142.520173,21.5308517 L142.520173,21.5308517 L142.520173,21.5308517 C142.420994,21.4857703 142.35788,21.4451971 142.330831,21.409132 L142.330831,21.409132 L142.330831,21.409132 C142.303782,21.3640507 142.263209,21.3009368 142.209111,21.2197904 L142.209111,21.2197904 L142.209111,21.2197904 C142.127965,21.1386439 142.087392,20.9312697 142.087392,20.5976678 L142.087392,20.5976678 L142.087392,20.5976678 C142.087392,20.2550495 142.344355,19.8132523 142.858283,19.2722761 L142.858283,19.2722761 L142.858283,19.2722761 C143.37221,18.7313 143.859089,18.4608119 144.318918,18.4608119 L144.318918,18.4608119 L144.318918,18.4608119 C144.778748,18.4608119 145.3062,18.7583488 145.901274,19.3534226 L145.901274,19.3534226 L145.901274,19.3534226 C146.983226,18.9206416 147.862312,18.2444214 148.538533,17.3247619 L148.538533,17.3247619 L148.538533,17.3247619 C149.214753,16.4051024 149.552863,15.4042965 149.552863,14.3223442 L149.552863,14.3223442 L149.552863,14.3223442 C149.552863,13.2403918 149.147131,12.6994156 148.335666,12.6994156 L148.335666,12.6994156 L148.335666,12.6994156 C145.52259,13.2944894 143.236966,15.2825769 141.478793,18.6636779 L141.478793,18.6636779 L141.478793,18.6636779 C140.88372,21.3685588 139.977585,23.8660655 138.760388,26.1561979 L138.760388,26.1561979 L138.760388,26.1561979 C137.543192,28.4373141 136.596484,29.5778722 135.920263,29.5778722 L135.920263,29.5778722 L135.920263,29.5778722 C135.244043,29.5778722 134.536266,29.4516445 133.796932,29.1991889 L133.796932,29.1991889 L133.796932,29.1991889 C133.048581,28.9377171 132.674406,28.5500175 132.674406,28.0360901 L132.674406,28.0360901 L132.674406,28.0360901 C132.674406,27.1164306 133.035057,25.9533319 133.756359,24.5467938 L133.756359,24.5467938 L133.756359,24.5467938 C134.468644,23.1402558 135.189945,21.9636326 135.920263,21.0169243 L135.920263,21.0169243 L136.975167,19.5968618 L136.975167,19.5968618 C138.192363,17.1083715 139.206694,14.2952954 140.018158,11.1576336 L140.018158,11.1576336 L140.018158,11.1576336 C140.829622,8.01997176 141.235354,5.57205458 141.235354,3.81388202 L141.235354,3.81388202 L141.235354,3.81388202 C141.235354,3.08356418 140.356268,2.65078324 138.598095,2.5155392 L138.598095,2.5155392 L138.598095,2.5155392 C138.381705,2.48849039 138.246461,2.44791718 138.192363,2.39381956 L138.192363,2.39381956 L138.192363,2.39381956 C138.138266,2.33972195 138.111217,2.1909535 138.111217,1.94751422 L138.111217,1.94751422 L138.111217,1.94751422 C138.111217,1.70407494 138.178839,1.43358686 138.314083,1.13604996 L138.314083,1.13604996 L138.314083,1.13604996 C138.449327,0.838513067 138.557522,0.68974462 138.638669,0.68974462 Z M171.462398,13.3485871 L171.462398,13.3485871 L171.462398,13.3485871 C171.19191,12.9158061 170.826751,12.5641716 170.366921,12.2936835 L170.366921,12.2936835 L170.366921,12.2936835 C169.907091,12.0231954 169.528408,11.8609026 169.230871,11.806805 L169.230871,11.806805 L168.743993,11.7256585 L168.743993,11.7256585 C166.796478,12.9158061 165.006749,14.8002065 163.374804,17.3788595 L163.374804,17.3788595 L163.374804,17.3788595 C161.733843,19.9665289 160.913362,22.3287915 160.913362,24.4656474 L160.913362,24.4656474 L160.913362,24.4656474 C160.913362,24.9254771 161.030574,25.2816198 161.264997,25.5340753 L161.264997,25.5340753 L161.264997,25.5340753 C161.490404,25.7955472 161.751876,25.9262831 162.049412,25.9262831 L162.049412,25.9262831 L162.049412,25.9262831 C162.833828,25.9262831 163.712914,25.5746486 164.686671,24.8713795 L164.686671,24.8713795 L164.686671,24.8713795 C165.660428,24.1681105 166.444844,23.4648415 167.039918,22.7615725 L167.039918,22.7615725 L167.932528,21.7066689 L167.932528,21.7066689 C168.608749,19.2181785 169.785372,16.4321512 171.462398,13.3485871 Z M167.567369,24.5062206 L167.567369,24.5062206 L167.567369,24.5062206 C167.540321,24.5332694 167.350979,24.7496599 166.999344,25.155392 L166.999344,25.155392 L166.999344,25.155392 C166.64771,25.5611241 166.23747,26.0029214 165.768624,26.4807836 L165.768624,26.4807836 L165.768624,26.4807836 C165.290761,26.9496297 164.740769,27.4410163 164.118646,27.9549437 L164.118646,27.9549437 L164.118646,27.9549437 C162.685059,29.0909937 161.278521,29.6590187 159.899032,29.6590187 L159.899032,29.6590187 L159.899032,29.6590187 C158.519543,29.6590187 157.48718,29.2397621 156.801944,28.4012491 L156.801944,28.4012491 L156.801944,28.4012491 C156.107691,27.562736 155.760564,26.3184908 155.760564,24.6685135 L155.760564,24.6685135 L155.760564,24.6685135 C155.760564,23.0185361 156.436785,20.9493023 157.789225,18.4608119 L157.789225,18.4608119 L157.789225,18.4608119 C159.141666,15.9723215 160.859265,13.8084168 162.942023,11.9690978 L162.942023,11.9690978 L162.942023,11.9690978 C165.024781,10.1297788 166.972296,9.21011934 168.784566,9.21011934 L168.784566,9.21011934 L168.784566,9.21011934 C169.59603,9.21011934 170.357905,9.4129854 171.07019,9.81871753 L171.07019,9.81871753 L171.07019,9.81871753 C171.791492,10.2244497 172.314435,10.6978038 172.639021,11.23878 L172.639021,11.23878 L172.639021,11.23878 C174.343096,8.56094793 175.749634,7.2220319 176.858635,7.2220319 L176.858635,7.2220319 L176.858635,7.2220319 C177.399611,7.2220319 177.859441,7.51506066 178.238124,8.10111818 L178.238124,8.10111818 L178.238124,8.10111818 C178.616808,8.67815943 178.806149,9.35437965 178.806149,10.1297788 L178.806149,10.1297788 L178.806149,10.1297788 C178.806149,10.8961617 178.197551,12.2981917 176.980355,14.3358686 L176.980355,14.3358686 L176.980355,14.3358686 C175.763158,16.3825618 174.26195,18.4878607 172.476728,20.6517654 L172.476728,20.6517654 L172.476728,20.6517654 C172.260338,21.5443761 172.152142,22.6939504 172.152142,24.1004885 L172.152142,24.1004885 L172.152142,24.1004885 C172.152142,25.9939051 172.66607,26.9406134 173.693925,26.9406134 L173.693925,26.9406134 L173.693925,26.9406134 C174.370145,26.9406134 175.235707,26.6160277 176.29061,25.9668563 L176.29061,25.9668563 L176.818062,25.6422706 L176.818062,25.6422706 C176.899208,25.6422706 177.043469,25.8045634 177.250843,26.1291491 L177.250843,26.1291491 L177.250843,26.1291491 C177.449201,26.4537348 177.54838,26.7061904 177.54838,26.8865158 L177.54838,26.8865158 L177.54838,26.8865158 C177.54838,27.0578249 177.277892,27.3598699 176.736916,27.7926509 L176.736916,27.7926509 L176.736916,27.7926509 C176.195939,28.2254318 175.416032,28.6491965 174.397194,29.0639449 L174.397194,29.0639449 L174.397194,29.0639449 C173.387371,29.4877095 172.368533,29.6995919 171.340678,29.6995919 L171.340678,29.6995919 L171.340678,29.6995919 C168.825139,29.6995919 167.567369,27.9684681 167.567369,24.5062206 Z M196.252631,2.5155392 L196.252631,2.5155392 L196.252631,2.5155392 C197.767364,2.62373444 199.133329,2.67783205 200.350525,2.67783205 L200.350525,2.67783205 L200.350525,2.67783205 C201.567722,2.67783205 203.150077,2.52906361 205.097591,2.23152671 L205.097591,2.23152671 L205.097591,2.23152671 C205.205787,2.23152671 205.341031,2.36677075 205.503324,2.63725884 L205.503324,2.63725884 L205.503324,2.63725884 C205.665616,2.90774693 205.746763,3.11061299 205.746763,3.24585703 L205.746763,3.24585703 L205.746763,3.24585703 C205.232835,5.22042006 204.44842,7.45194678 203.393516,9.94043717 L203.393516,9.94043717 L203.393516,9.94043717 C202.338613,12.4289276 201.689441,13.9842341 201.446002,14.6063567 L201.446002,14.6063567 L201.770588,14.6063567 L201.770588,14.6063567 C204.232029,10.9818163 206.824207,8.01997176 209.54712,5.72082302 L209.54712,5.72082302 L209.54712,5.72082302 C212.261018,3.42167429 214.497052,2.27209992 216.255225,2.27209992 L216.255225,2.27209992 L216.255225,2.27209992 C217.228982,2.27209992 217.981841,2.52455547 218.5138,3.02946657 L218.5138,3.02946657 L218.5138,3.02946657 C219.036744,3.52536139 219.298216,4.20608974 219.298216,5.07165162 L219.298216,5.07165162 L219.298216,5.07165162 C219.298216,5.93721349 219.081825,6.72613708 218.649044,7.43842237 L218.649044,7.43842237 L218.649044,7.43842237 C218.216264,8.15972393 217.824056,8.52037472 217.472421,8.52037472 L217.472421,8.52037472 L217.472421,8.52037472 C217.418324,8.52037472 217.120787,8.35808186 216.579811,8.03349616 L216.579811,8.03349616 L216.579811,8.03349616 C216.038834,7.70891046 215.551956,7.54661761 215.119175,7.54661761 L215.119175,7.54661761 L215.119175,7.54661761 C213.712637,7.54661761 212.058151,8.19578901 210.155719,9.49413183 L210.155719,9.49413183 L210.155719,9.49413183 C208.244269,10.7924746 206.531178,12.3883543 205.016445,14.281771 L205.016445,14.281771 L205.016445,14.281771 C205.611519,17.9874577 206.323804,20.9087291 207.153301,23.0455849 L207.153301,23.0455849 L207.153301,23.0455849 C207.973781,25.1824408 209.060242,26.2508688 210.412682,26.2508688 L210.412682,26.2508688 L210.412682,26.2508688 C211.413488,26.2508688 212.387245,25.858661 213.333954,25.0742456 L213.333954,25.0742456 L213.333954,25.0742456 C213.604442,25.2635873 213.739686,25.6016974 213.739686,26.0885759 L213.739686,26.0885759 L213.739686,26.0885759 C213.739686,26.9541378 213.22125,27.8332241 212.184379,28.7258348 L212.184379,28.7258348 L212.184379,28.7258348 C211.138492,29.6184454 209.88523,30.0647508 208.424595,30.0647508 L208.424595,30.0647508 L208.424595,30.0647508 C206.963959,30.0647508 205.809877,29.7672139 204.962347,29.1721401 L204.962347,29.1721401 L204.962347,29.1721401 C204.105802,28.5770663 203.474663,27.6844556 203.068931,26.494308 L203.068931,26.494308 L203.068931,26.494308 C202.311564,24.384501 201.905832,21.4226564 201.851734,17.6087744 L201.851734,17.6087744 L199.092756,21.2197904 L199.092756,21.2197904 C197.956706,23.7894272 196.888278,25.8361204 195.887472,27.3598699 L195.887472,27.3598699 L195.887472,27.3598699 C194.886666,28.8926357 193.939958,29.6590187 193.047347,29.6590187 L193.047347,29.6590187 L193.047347,29.6590187 C192.154736,29.6590187 191.284666,29.4832014 190.437137,29.1315669 L190.437137,29.1315669 L190.437137,29.1315669 C189.580591,28.7799324 189.152319,28.198383 189.152319,27.3869187 L189.152319,27.3869187 L189.152319,27.3869187 C189.152319,26.6566009 189.855588,25.4664533 191.262126,23.816476 L191.262126,23.816476 L191.262126,23.816476 C191.749004,23.248451 192.506371,22.3964135 193.534226,21.2603636 L193.534226,21.2603636 L193.534226,21.2603636 C197.29401,12.7399889 199.173902,7.62776403 199.173902,5.92368909 L199.173902,5.92368909 L199.173902,5.92368909 C199.173902,5.59910338 198.76817,5.28353395 197.956706,4.97698079 L197.956706,4.97698079 L197.956706,4.97698079 C197.145242,4.66141135 196.482546,4.50362664 195.968618,4.50362664 L195.968618,4.50362664 L195.968618,4.50362664 C195.725179,4.50362664 195.60346,4.33231751 195.60346,3.98969927 L195.60346,3.98969927 L195.60346,3.98969927 C195.60346,3.6560973 195.693622,3.32700346 195.873948,3.00241776 L195.873948,3.00241776 L195.873948,3.00241776 C196.045257,2.67783205 196.171485,2.5155392 196.252631,2.5155392 Z M224.978466,12.3748299 L224.978466,12.3748299 L224.978466,12.3748299 C224.329294,12.9428549 223.56742,13.8625144 222.692841,15.1338084 L222.692841,15.1338084 L222.692841,15.1338084 C221.809247,16.4051024 221.178108,17.59525 220.799425,18.7042512 L220.799425,18.7042512 L220.799425,18.7042512 C222.314158,18.5690071 223.63955,18.3120434 224.7756,17.9333601 L224.7756,17.9333601 L224.7756,17.9333601 C225.91165,17.5546768 226.736638,17.1354203 227.250566,16.6755905 L227.250566,16.6755905 L227.250566,16.6755905 C228.27842,15.7829798 228.792348,14.9805318 228.792348,14.2682465 L228.792348,14.2682465 L228.792348,14.2682465 C228.792348,13.546945 228.589482,12.9834281 228.18375,12.577696 L228.18375,12.577696 L228.18375,12.577696 C227.778017,12.1719639 227.273106,11.9690978 226.669016,11.9690978 L226.669016,11.9690978 L226.669016,11.9690978 C226.05591,11.9690978 225.492393,12.1043419 224.978466,12.3748299 Z M220.353119,20.6517654 L220.353119,20.6517654 L220.353119,20.6517654 C220.299022,21.2468392 220.271973,21.5984737 220.271973,21.7066689 L220.271973,21.7066689 L220.271973,21.7066689 C220.271973,22.8968165 220.528937,23.8886061 221.042864,24.6820379 L221.042864,24.6820379 L221.042864,24.6820379 C221.556791,25.4844859 222.354731,25.8857099 223.436684,25.8857099 L223.436684,25.8857099 L223.436684,25.8857099 C225.519442,25.8857099 227.372285,25.2094896 228.995214,23.8570492 L228.995214,23.8570492 L228.995214,23.8570492 C229.022263,23.8300004 229.103409,23.816476 229.238653,23.816476 L229.238653,23.816476 L229.238653,23.816476 C229.373897,23.816476 229.549714,23.9246712 229.766105,24.1410617 L229.766105,24.1410617 L229.766105,24.1410617 C229.982495,24.3574522 230.090691,24.587367 230.090691,24.8308063 L230.090691,24.8308063 L230.090691,24.8308063 C230.090691,25.0742456 229.684958,25.5746486 228.873494,26.3320152 L228.873494,26.3320152 L228.873494,26.3320152 C228.06203,27.0893818 226.898931,27.8332241 225.384198,28.5635419 L225.384198,28.5635419 L225.384198,28.5635419 C223.869465,29.2938597 222.341207,29.6590187 220.799425,29.6590187 L220.799425,29.6590187 L220.799425,29.6590187 C219.257643,29.6590187 217.981841,29.1450913 216.972018,28.1172366 L216.972018,28.1172366 L216.972018,28.1172366 C215.95318,27.0893818 215.443761,25.7369414 215.443761,24.0599153 L215.443761,24.0599153 L215.443761,24.0599153 C215.443761,22.3828891 215.849493,20.6652898 216.660957,18.9071172 L216.660957,18.9071172 L216.660957,18.9071172 C217.472421,17.1489447 218.522817,15.5395406 219.812143,14.0789049 L219.812143,14.0789049 L219.812143,14.0789049 C221.092454,12.6182692 222.611695,11.4010728 224.369868,10.4273157 L224.369868,10.4273157 L224.369868,10.4273157 C226.12804,9.45355861 227.737444,8.96668006 229.19808,8.96668006 L229.19808,8.96668006 L229.19808,8.96668006 C230.658716,8.96668006 231.790257,9.28675763 232.592705,9.92691276 L232.592705,9.92691276 L232.592705,9.92691276 C233.386137,10.5580516 233.782853,11.441646 233.782853,12.577696 L233.782853,12.577696 L233.782853,12.577696 C233.782853,14.0383317 233.309499,15.3772477 232.36279,16.5944441 L232.36279,16.5944441 L232.36279,16.5944441 C230.361179,19.0829345 226.357955,20.4353749 220.353119,20.6517654 Z M247.902331,12.9834281 L247.902331,12.9834281 L247.902331,12.9834281 C247.523648,13.1727698 246.752757,14.0698886 245.589658,15.6747846 L245.589658,15.6747846 L245.589658,15.6747846 C244.426559,17.2886968 243.533948,18.6772024 242.911826,19.8403011 L242.911826,19.8403011 L242.911826,19.8403011 C242.289703,22.545182 241.428649,24.8443307 240.328665,26.7377473 L240.328665,26.7377473 L240.328665,26.7377473 C239.237696,28.6311639 238.349593,29.5778722 237.664357,29.5778722 L237.664357,29.5778722 L237.664357,29.5778722 C236.970104,29.5778722 236.248803,29.4516445 235.500452,29.1991889 L235.500452,29.1991889 L235.500452,29.1991889 C234.761118,28.9377171 234.391451,28.5500175 234.391451,28.0360901 L234.391451,28.0360901 L234.391451,28.0360901 C234.391451,27.1164306 234.747594,25.9533319 235.459879,24.5467938 L235.459879,24.5467938 L235.459879,24.5467938 C236.181181,23.1402558 236.90699,21.9636326 237.637308,21.0169243 L237.637308,21.0169243 L238.692212,19.5968618 L238.692212,19.5968618 C239.233188,17.7575429 239.503676,15.7424066 239.503676,13.5514531 L239.503676,13.5514531 L239.503676,13.5514531 C239.503676,12.577696 239.30081,12.0908175 238.895078,12.0908175 L238.895078,12.0908175 L238.895078,12.0908175 C238.597541,12.0908175 238.232382,12.208029 237.799601,12.442452 L237.799601,12.442452 L237.799601,12.442452 C237.36682,12.6678587 237.082808,12.7805621 236.947564,12.7805621 L236.947564,12.7805621 L236.947564,12.7805621 C236.812319,12.7805621 236.663551,12.6182692 236.501258,12.2936835 L236.501258,12.2936835 L236.501258,12.2936835 C236.338965,11.9690978 236.257819,11.7211504 236.257819,11.5498413 L236.257819,11.5498413 L236.257819,11.5498413 C236.257819,11.3695159 236.564372,11.071979 237.177478,10.6572306 L237.177478,10.6572306 L237.177478,10.6572306 C237.781568,10.2334659 238.597541,9.81871753 239.625396,9.4129854 L239.625396,9.4129854 L239.625396,9.4129854 C240.65325,9.00725327 241.613483,8.80438721 242.506094,8.80438721 L242.506094,8.80438721 L242.506094,8.80438721 C242.911826,8.80438721 243.254444,9.18307053 243.533948,9.94043717 L243.533948,9.94043717 L243.533948,9.94043717 C243.822469,10.6978038 243.966729,11.5047599 243.966729,12.3613055 L243.966729,12.3613055 L243.966729,12.3613055 C243.966729,13.2088349 243.953205,13.8444819 243.926156,14.2682465 L243.926156,14.2682465 L243.926156,14.2682465 C243.899107,14.6829949 243.885583,14.9715156 243.885583,15.1338084 L243.885583,15.1338084 L243.885583,15.1338084 C244.886389,13.3756359 246.031455,11.8879514 247.320782,10.670755 L247.320782,10.670755 L247.320782,10.670755 C248.601092,9.45355861 249.822796,8.84496042 250.985895,8.84496042 L250.985895,8.84496042 L250.985895,8.84496042 C252.148994,8.84496042 253.019064,9.15602172 253.596105,9.77814432 L253.596105,9.77814432 L253.596105,9.77814432 C254.182163,10.4002669 254.475192,11.2658288 254.475192,12.3748299 L254.475192,12.3748299 L254.475192,12.3748299 C254.475192,13.8895632 253.717825,15.3772477 252.203092,16.8378834 L252.203092,16.8378834 L252.203092,16.8378834 C250.688358,18.298519 249.376491,19.0288369 248.26749,19.0288369 L248.26749,19.0288369 L248.26749,19.0288369 C247.726514,19.0288369 247.456026,18.8530196 247.456026,18.5013851 L247.456026,18.5013851 L247.456026,18.5013851 C247.456026,18.4202387 247.667908,17.9468845 248.091673,17.0813226 L248.091673,17.0813226 L248.091673,17.0813226 C248.506421,16.2157608 248.713795,15.3186419 248.713795,14.3899662 L248.713795,14.3899662 L248.713795,14.3899662 C248.713795,13.4522742 248.443307,12.9834281 247.902331,12.9834281 Z M266.850021,5.47738375 L266.850021,5.47738375 L266.850021,5.47738375 C266.309045,5.74787183 265.348813,5.88311588 263.969323,5.88311588 L263.969323,5.88311588 L263.969323,5.88311588 C262.589834,5.88311588 261.629601,5.80196945 261.088625,5.6396766 L261.088625,5.6396766 L261.088625,5.6396766 C261.305016,4.85526115 261.413211,4.12494331 261.413211,3.4487231 L261.413211,3.4487231 L261.413211,3.4487231 C261.413211,2.77250288 261.399687,2.32619754 261.372638,2.10980707 L261.372638,2.10980707 L261.372638,2.10980707 C261.670175,1.64997733 262.522212,1.21268825 263.92875,0.797939854 L263.92875,0.797939854 L263.92875,0.797939854 C265.335288,0.374175186 266.701253,0.162292852 268.026645,0.162292852 L268.026645,0.162292852 L268.026645,0.162292852 C268.188937,0.162292852 268.270084,0.459829747 268.270084,1.05490354 L268.270084,1.05490354 L268.270084,1.05490354 C268.270084,1.64997733 268.121315,2.46144158 267.823779,3.48929631 L267.823779,3.48929631 L267.823779,3.48929631 C267.526242,4.51715104 267.201656,5.17984685 266.850021,5.47738375 Z M264.983654,11.4010728 L264.983654,11.4010728 L264.983654,11.4010728 C264.84841,11.7527073 264.632019,12.3117161 264.334482,13.078099 L264.334482,13.078099 L264.334482,13.078099 C264.036945,13.8534981 263.148843,16.3645292 261.670175,20.6111922 L261.670175,20.6111922 L261.670175,20.6111922 C260.200523,24.8578551 259.181684,27.7115044 258.613659,29.1721401 L258.613659,29.1721401 L258.613659,29.1721401 C258.045634,30.6327758 257.441544,31.9356267 256.801389,33.0806929 L256.801389,33.0806929 L256.801389,33.0806929 C256.17025,34.2347754 255.37231,35.4023824 254.407569,36.5835137 L254.407569,36.5835137 L254.407569,36.5835137 C253.451845,37.7556287 252.306779,38.6662719 250.972371,39.3154433 L250.972371,39.3154433 L250.972371,39.3154433 C249.628947,39.9646147 248.159295,40.2892004 246.563415,40.2892004 L246.563415,40.2892004 L246.563415,40.2892004 C244.967535,40.2892004 243.732306,39.8969927 242.857728,39.1125773 L242.857728,39.1125773 L242.857728,39.1125773 C241.974134,38.3281618 241.532337,37.264242 241.532337,35.9208178 L241.532337,35.9208178 L241.532337,35.9208178 C241.532337,34.58641 242.118394,33.3917542 243.290509,32.3368507 L243.290509,32.3368507 L243.290509,32.3368507 C244.47164,31.2819472 245.53556,30.7544954 246.482269,30.7544954 L246.482269,30.7544954 L246.482269,30.7544954 C246.91505,30.7544954 247.13144,30.8897394 247.13144,31.1602275 L247.13144,31.1602275 L247.13144,31.1602275 C247.13144,31.1872763 247.00972,31.6065329 246.766281,32.4179971 L246.766281,32.4179971 L246.766281,32.4179971 C246.522842,33.2294614 246.401122,33.9462548 246.401122,34.5683774 L246.401122,34.5683774 L246.401122,34.5683774 C246.401122,36.7052333 247.172013,37.7736612 248.713795,37.7736612 L248.713795,37.7736612 L248.713795,37.7736612 C250.012138,37.7736612 250.985895,36.9351482 251.635067,35.258122 L251.635067,35.258122 L251.635067,35.258122 C252.094896,34.0950233 252.550218,32.5397168 253.001031,30.5922026 L253.001031,30.5922026 L253.001031,30.5922026 C253.442829,28.6446883 253.794463,27.260691 254.055935,26.4402104 L254.055935,26.4402104 L254.055935,26.4402104 C254.308391,25.6107136 254.853875,24.0869641 255.692388,21.8689618 L255.692388,21.8689618 L255.692388,21.8689618 C257.856293,16.188712 258.938245,13.1502291 258.938245,12.7535133 L258.938245,12.7535133 L258.938245,12.7535133 C258.938245,12.3658137 258.83005,12.1719639 258.613659,12.1719639 L258.613659,12.1719639 L258.613659,12.1719639 C258.316122,12.1719639 257.88785,12.3026998 257.328841,12.5641716 L257.328841,12.5641716 L257.328841,12.5641716 C256.778848,12.8166272 256.43623,12.9428549 256.300986,12.9428549 L256.300986,12.9428549 L256.300986,12.9428549 C256.165742,12.9428549 256.007957,12.7625295 255.827632,12.4018788 L255.827632,12.4018788 L255.827632,12.4018788 C255.656323,12.0322117 255.570668,11.7527073 255.570668,11.5633657 L255.570668,11.5633657 L255.570668,11.5633657 C255.570668,11.4281216 255.962876,11.1666498 256.747291,10.7789502 L256.747291,10.7789502 L256.747291,10.7789502 C257.531707,10.3822344 258.518988,10.0035511 259.709136,9.64290027 L259.709136,9.64290027 L259.709136,9.64290027 C260.899284,9.27323322 261.823451,9.0883997 262.481639,9.0883997 L262.481639,9.0883997 L262.481639,9.0883997 C263.148843,9.0883997 263.766457,9.24618441 264.334482,9.56175385 L264.334482,9.56175385 L264.334482,9.56175385 C264.902507,9.86830701 265.18652,10.1658439 265.18652,10.4543645 L265.18652,10.4543645 L265.18652,10.4543645 C265.18652,10.7338689 265.118898,11.0494383 264.983654,11.4010728 Z M281.578098,13.3485871 L281.578098,13.3485871 L281.578098,13.3485871 C281.30761,12.9158061 280.942451,12.5641716 280.482621,12.2936835 L280.482621,12.2936835 L280.482621,12.2936835 C280.022791,12.0231954 279.644108,11.8609026 279.346571,11.806805 L279.346571,11.806805 L278.859692,11.7256585 L278.859692,11.7256585 C276.912178,12.9158061 275.122449,14.8002065 273.490504,17.3788595 L273.490504,17.3788595 L273.490504,17.3788595 C271.849543,19.9665289 271.029062,22.3287915 271.029062,24.4656474 L271.029062,24.4656474 L271.029062,24.4656474 C271.029062,24.9254771 271.146274,25.2816198 271.380697,25.5340753 L271.380697,25.5340753 L271.380697,25.5340753 C271.606104,25.7955472 271.867575,25.9262831 272.165112,25.9262831 L272.165112,25.9262831 L272.165112,25.9262831 C272.949528,25.9262831 273.828614,25.5746486 274.802371,24.8713795 L274.802371,24.8713795 L274.802371,24.8713795 C275.776128,24.1681105 276.560544,23.4648415 277.155618,22.7615725 L277.155618,22.7615725 L278.048228,21.7066689 L278.048228,21.7066689 C278.724448,19.2181785 279.901072,16.4321512 281.578098,13.3485871 Z M277.683069,24.5062206 L277.683069,24.5062206 L277.683069,24.5062206 C277.65602,24.5332694 277.466679,24.7496599 277.115044,25.155392 L277.115044,25.155392 L277.115044,25.155392 C276.76341,25.5611241 276.348661,26.0029214 275.870799,26.4807836 L275.870799,26.4807836 L275.870799,26.4807836 C275.401953,26.9496297 274.856469,27.4410163 274.234346,27.9549437 L274.234346,27.9549437 L274.234346,27.9549437 C272.800759,29.0909937 271.394221,29.6590187 270.014732,29.6590187 L270.014732,29.6590187 L270.014732,29.6590187 C268.635243,29.6590187 267.598372,29.2397621 266.904119,28.4012491 L266.904119,28.4012491 L266.904119,28.4012491 C266.218883,27.562736 265.876264,26.3184908 265.876264,24.6685135 L265.876264,24.6685135 L265.876264,24.6685135 C265.876264,23.0185361 266.552485,20.9493023 267.904925,18.4608119 L267.904925,18.4608119 L267.904925,18.4608119 C269.257365,15.9723215 270.974965,13.8084168 273.057723,11.9690978 L273.057723,11.9690978 L273.057723,11.9690978 C275.140481,10.1297788 277.087996,9.21011934 278.900266,9.21011934 L278.900266,9.21011934 L278.900266,9.21011934 C279.71173,9.21011934 280.473605,9.4129854 281.18589,9.81871753 L281.18589,9.81871753 L281.18589,9.81871753 C281.907192,10.2244497 282.430135,10.6978038 282.754721,11.23878 L282.754721,11.23878 L282.754721,11.23878 C284.458796,8.56094793 285.865334,7.2220319 286.974335,7.2220319 L286.974335,7.2220319 L286.974335,7.2220319 C287.515311,7.2220319 287.975141,7.51506066 288.353824,8.10111818 L288.353824,8.10111818 L288.353824,8.10111818 C288.732508,8.67815943 288.921849,9.35437965 288.921849,10.1297788 L288.921849,10.1297788 L288.921849,10.1297788 C288.921849,10.8961617 288.313251,12.2981917 287.096055,14.3358686 L287.096055,14.3358686 L287.096055,14.3358686 C285.878858,16.3825618 284.377649,18.4878607 282.592428,20.6517654 L282.592428,20.6517654 L282.592428,20.6517654 C282.376038,21.5443761 282.267842,22.6939504 282.267842,24.1004885 L282.267842,24.1004885 L282.267842,24.1004885 C282.267842,25.9939051 282.78177,26.9406134 283.809624,26.9406134 L283.809624,26.9406134 L283.809624,26.9406134 C284.485845,26.9406134 285.351407,26.6160277 286.40631,25.9668563 L286.40631,25.9668563 L286.933762,25.6422706 L286.933762,25.6422706 C287.014908,25.6422706 287.159169,25.8045634 287.366543,26.1291491 L287.366543,26.1291491 L287.366543,26.1291491 C287.564901,26.4537348 287.66408,26.7061904 287.66408,26.8865158 L287.66408,26.8865158 L287.66408,26.8865158 C287.66408,27.0578249 287.393592,27.3598699 286.852615,27.7926509 L286.852615,27.7926509 L286.852615,27.7926509 C286.311639,28.2254318 285.53624,28.6491965 284.526418,29.0639449 L284.526418,29.0639449 L284.526418,29.0639449 C283.507579,29.4877095 282.484233,29.6995919 281.456378,29.6995919 L281.456378,29.6995919 L281.456378,29.6995919 C278.940839,29.6995919 277.683069,27.9684681 277.683069,24.5062206 Z M322.51647,26.3320152 L322.51647,26.3320152 L322.51647,26.3320152 C321.650908,29.1991889 320.379614,30.6327758 318.702588,30.6327758 L318.702588,30.6327758 L318.702588,30.6327758 C318.080465,30.6327758 317.467359,30.3803202 316.863269,29.8754091 L316.863269,29.8754091 L316.863269,29.8754091 C316.250162,29.3795143 315.943609,28.8430463 315.943609,28.266005 L315.943609,28.266005 L315.943609,28.266005 C315.943609,27.6799475 316.083361,27.2065933 316.362866,26.8459426 L316.362866,26.8459426 L316.362866,26.8459426 C316.651386,26.4762755 317.120232,26.0480027 317.769404,25.5611241 L317.769404,25.5611241 L317.769404,25.5611241 C318.175136,22.5857552 318.405051,19.3263738 318.459148,15.7829798 L318.459148,15.7829798 L318.459148,15.7829798 C315.375584,19.7321059 312.075629,23.2619754 308.559284,26.3725884 L308.559284,26.3725884 L308.559284,26.3725884 C307.504381,29.0233717 306.206038,30.3487633 304.664256,30.3487633 L304.664256,30.3487633 L304.664256,30.3487633 C303.960987,30.3487633 303.32534,30.1098321 302.757315,29.6319698 L302.757315,29.6319698 L302.757315,29.6319698 C302.18929,29.1631238 301.905277,28.6582127 301.905277,28.1172366 L301.905277,28.1172366 L301.905277,28.1172366 C301.905277,27.1975771 302.500351,26.3725884 303.690499,25.6422706 L303.690499,25.6422706 L303.690499,25.6422706 C304.177377,21.9365838 304.420817,18.4833526 304.420817,15.2825769 L304.420817,15.2825769 L304.420817,15.2825769 C304.420817,12.0727849 304.217951,9.57077012 303.812218,7.77653248 L303.812218,7.77653248 L303.812218,7.77653248 C303.406486,5.97327857 302.892559,5.07165162 302.270436,5.07165162 L302.270436,5.07165162 L302.270436,5.07165162 C301.51307,5.07165162 300.796276,5.19337126 300.120056,5.43681053 L300.120056,5.43681053 L300.120056,5.43681053 C299.714324,5.13927364 299.511458,4.78763913 299.511458,4.381907 L299.511458,4.381907 L299.511458,4.381907 C299.511458,4.19256534 299.741373,3.94010979 300.201202,3.62454036 L300.201202,3.62454036 L300.201202,3.62454036 C300.661032,3.31798719 301.364301,3.02946657 302.31101,2.75897848 L302.31101,2.75897848 L302.31101,2.75897848 C303.257718,2.48849039 304.272048,2.35324635 305.354001,2.35324635 L305.354001,2.35324635 L305.354001,2.35324635 C306.787587,2.35324635 307.946178,3.0339747 308.829772,4.3954314 L308.829772,4.3954314 L308.829772,4.3954314 C309.704351,5.76590437 310.14164,7.93882533 310.14164,10.9141943 L310.14164,10.9141943 L310.14164,10.9141943 C310.14164,13.9977585 309.80353,17.5682012 309.127309,21.6255225 L309.127309,21.6255225 L308.76215,23.6541831 L308.76215,23.6541831 C310.763762,21.9230594 312.594065,19.8673499 314.253059,17.4870548 L314.253059,17.4870548 L314.253059,17.4870548 C315.921068,15.1067596 317.29605,12.7129401 318.378002,10.3055961 L318.378002,10.3055961 L318.378002,10.3055961 C318.323904,9.11544851 318.175136,7.95234973 317.931697,6.81629977 L317.931697,6.81629977 L317.931697,6.81629977 C317.688257,5.68024981 317.566538,5.0310784 317.566538,4.86878555 L317.566538,4.86878555 L317.566538,4.86878555 C317.566538,4.05732129 317.931697,3.40814989 318.662014,2.92127133 L318.662014,2.92127133 L318.662014,2.92127133 C319.392332,2.43439278 320.325516,2.1909535 321.461566,2.1909535 L321.461566,2.1909535 L321.461566,2.1909535 C322.597616,2.1909535 323.341458,2.36226262 323.693093,2.70488086 L323.693093,2.70488086 L323.693093,2.70488086 C324.044727,3.03848284 324.220545,3.60199968 324.220545,4.3954314 L324.220545,4.3954314 L324.220545,4.3954314 C324.220545,5.19787939 324.112349,6.39704324 323.895959,7.99292295 L323.895959,7.99292295 L323.895959,7.99292295 C323.679568,9.58880266 323.571373,10.6301818 323.571373,11.1170603 L323.571373,11.1170603 L323.571373,11.1170603 C323.571373,14.4440638 323.300885,18.5960559 322.759909,23.5730367 L322.759909,23.5730367 L322.759909,23.5730367 C325.924619,20.8140582 328.476224,17.8657381 330.414722,14.7280763 L330.414722,14.7280763 L330.414722,14.7280763 C332.344203,11.5904145 333.308944,8.64209435 333.308944,5.88311588 L333.308944,5.88311588 L333.308944,5.88311588 C333.308944,4.85526115 333.191733,4.11141891 332.95731,3.65158916 L332.95731,3.65158916 L332.95731,3.65158916 C332.731903,3.19175942 332.6192,2.9167632 332.6192,2.8266005 L332.6192,2.8266005 L332.6192,2.8266005 C332.6192,2.72742154 332.71387,2.61021003 332.903212,2.47496599 L332.903212,2.47496599 L332.903212,2.47496599 C333.498286,2.04218505 334.336799,1.82579458 335.418751,1.82579458 L335.418751,1.82579458 L335.418751,1.82579458 C336.500704,1.82579458 337.352741,2.11882334 337.974864,2.70488086 L337.974864,2.70488086 L337.974864,2.70488086 C338.596986,3.28192211 338.908048,4.13846772 338.908048,5.27451768 L338.908048,5.27451768 L338.908048,5.27451768 C338.908048,8.98020446 337.04168,12.8076109 333.308944,16.7567369 L333.308944,16.7567369 L333.308944,16.7567369 C331.496674,18.6772024 329.792599,20.3361959 328.196719,21.7337177 L328.196719,21.7337177 L328.196719,21.7337177 C326.60084,23.1222232 324.707423,24.6549891 322.51647,26.3320152 Z M344.588297,12.3748299 L344.588297,12.3748299 L344.588297,12.3748299 C343.939126,12.9428549 343.172743,13.8625144 342.289149,15.1338084 L342.289149,15.1338084 L342.289149,15.1338084 C341.414571,16.4051024 340.78794,17.59525 340.409257,18.7042512 L340.409257,18.7042512 L340.409257,18.7042512 C341.92399,18.5690071 343.249381,18.3120434 344.385431,17.9333601 L344.385431,17.9333601 L344.385431,17.9333601 C345.521481,17.5546768 346.34647,17.1354203 346.860397,16.6755905 L346.860397,16.6755905 L346.860397,16.6755905 C347.888252,15.7829798 348.402179,14.9805318 348.402179,14.2682465 L348.402179,14.2682465 L348.402179,14.2682465 C348.402179,13.546945 348.199313,12.9834281 347.793581,12.577696 L347.793581,12.577696 L347.793581,12.577696 C347.387849,12.1719639 346.87843,11.9690978 346.265324,11.9690978 L346.265324,11.9690978 L346.265324,11.9690978 C345.661234,11.9690978 345.102225,12.1043419 344.588297,12.3748299 Z M339.962951,20.6517654 L339.962951,20.6517654 L339.962951,20.6517654 C339.908854,21.2468392 339.881805,21.5984737 339.881805,21.7066689 L339.881805,21.7066689 L339.881805,21.7066689 C339.881805,22.8968165 340.138768,23.8886061 340.652696,24.6820379 L340.652696,24.6820379 L340.652696,24.6820379 C341.166623,25.4844859 341.964563,25.8857099 343.046515,25.8857099 L343.046515,25.8857099 L343.046515,25.8857099 C345.129274,25.8857099 346.982117,25.2094896 348.605046,23.8570492 L348.605046,23.8570492 L348.605046,23.8570492 C348.632094,23.8300004 348.713241,23.816476 348.848485,23.816476 L348.848485,23.816476 L348.848485,23.816476 C348.983729,23.816476 349.159546,23.9246712 349.375937,24.1410617 L349.375937,24.1410617 L349.375937,24.1410617 C349.592327,24.3574522 349.700522,24.587367 349.700522,24.8308063 L349.700522,24.8308063 L349.700522,24.8308063 C349.700522,25.0742456 349.29479,25.5746486 348.483326,26.3320152 L348.483326,26.3320152 L348.483326,26.3320152 C347.671862,27.0893818 346.508763,27.8332241 344.99403,28.5635419 L344.99403,28.5635419 L344.99403,28.5635419 C343.479296,29.2938597 341.951039,29.6590187 340.409257,29.6590187 L340.409257,29.6590187 L340.409257,29.6590187 C338.867474,29.6590187 337.587164,29.1450913 336.568326,28.1172366 L336.568326,28.1172366 L336.568326,28.1172366 C335.558503,27.0893818 335.053592,25.7369414 335.053592,24.0599153 L335.053592,24.0599153 L335.053592,24.0599153 C335.053592,22.3828891 335.459325,20.6652898 336.270789,18.9071172 L336.270789,18.9071172 L336.270789,18.9071172 C337.082253,17.1489447 338.12814,15.5395406 339.408451,14.0789049 L339.408451,14.0789049 L339.408451,14.0789049 C340.697777,12.6182692 342.221527,11.4010728 343.979699,10.4273157 L343.979699,10.4273157 L343.979699,10.4273157 C345.737872,9.45355861 347.347276,8.96668006 348.807912,8.96668006 L348.807912,8.96668006 L348.807912,8.96668006 C350.268547,8.96668006 351.395581,9.28675763 352.189013,9.92691276 L352.189013,9.92691276 L352.189013,9.92691276 C352.991461,10.5580516 353.392685,11.441646 353.392685,12.577696 L353.392685,12.577696 L353.392685,12.577696 C353.392685,14.0383317 352.91933,15.3772477 351.972622,16.5944441 L351.972622,16.5944441 L351.972622,16.5944441 C349.97101,19.0829345 345.967787,20.4353749 339.962951,20.6517654 Z M368.567066,12.4559764 L368.567066,12.4559764 L368.567066,12.4559764 C367.755602,12.6994156 366.781845,13.3350627 365.645795,14.3629174 L365.645795,14.3629174 L365.645795,14.3629174 C364.509745,15.3907721 363.576561,16.3645292 362.846243,17.2841887 L362.846243,17.2841887 L361.79134,18.6636779 L361.79134,18.6636779 C361.439705,20.0161184 360.709387,21.8960106 359.600386,24.3033545 L359.600386,24.3033545 L359.032361,25.5205509 L359.032361,25.5205509 C359.952021,26.6025033 360.961843,27.1434795 362.061828,27.1434795 L362.061828,27.1434795 L362.061828,27.1434795 C363.152796,27.1434795 364.315895,26.3680803 365.551124,24.8172819 L365.551124,24.8172819 L365.551124,24.8172819 C366.777337,23.2574673 367.773635,21.4587215 368.540017,19.4210446 L368.540017,19.4210446 L368.540017,19.4210446 C369.315417,17.3743514 369.703116,15.620687 369.703116,14.1600513 L369.703116,14.1600513 L369.703116,14.1600513 C369.703116,13.6731728 369.585905,13.2674406 369.351482,12.9428549 L369.351482,12.9428549 L369.351482,12.9428549 C369.126075,12.6182692 368.864603,12.4559764 368.567066,12.4559764 Z M357.612299,27.7520776 L357.612299,27.7520776 L357.612299,27.7520776 C356.881981,28.8610788 356.246334,29.4561526 355.705358,29.537299 L355.705358,29.537299 L355.705358,29.537299 C354.97504,29.537299 354.307836,29.3164004 353.703746,28.8746032 L353.703746,28.8746032 L353.703746,28.8746032 C353.09064,28.4237897 352.784086,27.9188786 352.784086,27.3598699 L352.784086,27.3598699 L352.784086,27.3598699 C352.784086,26.8098775 353.189819,25.8721854 354.001283,24.5467938 L354.001283,24.5467938 L354.001283,24.5467938 C354.812747,23.2214022 355.908224,21.8013397 357.287713,20.2866065 L357.287713,20.2866065 L357.287713,20.2866065 C360.154887,13.0645746 361.588474,7.43842237 361.588474,3.40814989 L361.588474,3.40814989 L361.588474,3.40814989 C361.372083,3.21880823 360.984384,3.02495843 360.425375,2.8266005 L360.425375,2.8266005 L360.425375,2.8266005 C359.875382,2.6192263 359.356947,2.5155392 358.870068,2.5155392 L358.870068,2.5155392 L358.870068,2.5155392 C358.59958,2.5155392 358.464336,2.24955925 358.464336,1.71759935 L358.464336,1.71759935 L358.464336,1.71759935 C358.464336,1.19465571 358.613105,0.852037472 358.910642,0.68974462 L358.910642,0.68974462 L358.910642,0.68974462 C359.884399,0.797939854 360.862664,0.852037472 361.845437,0.852037472 L361.845437,0.852037472 L361.845437,0.852037472 C362.837227,0.852037472 363.535988,0.838513067 363.94172,0.811464259 L363.94172,0.811464259 L363.94172,0.811464259 C364.347452,0.78441545 364.735152,0.739334102 365.104819,0.676220216 L365.104819,0.676220216 L365.104819,0.676220216 C365.46547,0.604090059 365.726941,0.549992442 365.889234,0.513927364 L365.889234,0.513927364 L365.889234,0.513927364 C366.051527,0.468846016 366.308491,0.38769959 366.660125,0.270488086 L366.660125,0.270488086 L366.660125,0.270488086 C367.01176,0.144260313 367.22815,0.0721301563 367.309297,0.0540976172 L367.309297,0.0540976172 L367.309297,0.0540976172 C367.390443,0.0450813477 367.498638,0.139752178 367.633882,0.338110108 L367.633882,0.338110108 L367.633882,0.338110108 C367.769126,0.545484307 367.836748,0.779907315 367.836748,1.04137913 L367.836748,1.04137913 L367.836748,1.04137913 C367.836748,1.29383468 367.742078,1.8798922 367.552736,2.79955169 L367.552736,2.79955169 L367.552736,2.79955169 C367.363394,3.71921119 366.835943,5.32410716 365.970381,7.61423963 L365.970381,7.61423963 L365.970381,7.61423963 C365.104819,9.89535582 363.968769,12.3072079 362.562231,14.8497959 L362.562231,14.8497959 L362.562231,14.8497959 C362.562231,14.8768447 362.607312,14.917418 362.697475,14.9715156 L362.697475,14.9715156 L362.697475,14.9715156 C362.796654,15.0256132 362.846243,15.0661864 362.846243,15.0932352 L362.846243,15.0932352 L362.846243,15.0932352 C362.900341,15.0391376 363.224927,14.6559461 363.82,13.9436608 L363.82,13.9436608 L363.82,13.9436608 C364.415074,13.2223593 364.915477,12.6588424 365.321209,12.2531103 L365.321209,12.2531103 L365.321209,12.2531103 C365.726941,11.8473782 366.254393,11.3469752 366.903565,10.7519014 L366.903565,10.7519014 L366.903565,10.7519014 C368.256005,9.56175385 369.594921,8.96668006 370.920313,8.96668006 L370.920313,8.96668006 L370.920313,8.96668006 C373.544047,8.96668006 374.855914,10.5084621 374.855914,13.5920263 L374.855914,13.5920263 L374.855914,13.5920263 C374.855914,15.052662 374.531329,16.6981312 373.882157,18.5284339 L373.882157,18.5284339 L373.882157,18.5284339 C373.232986,20.3497204 372.353899,22.0943685 371.244898,23.7623784 L371.244898,23.7623784 L371.244898,23.7623784 C370.135897,25.421372 368.738375,26.8188937 367.052333,27.9549437 L367.052333,27.9549437 L367.052333,27.9549437 C365.357274,29.0909937 363.612626,29.6590187 361.818389,29.6590187 L361.818389,29.6590187 L361.818389,29.6590187 C360.015135,29.6590187 358.613105,29.0233717 357.612299,27.7520776 Z" id="Shape"></path>
            </g>
        </g>
    </g>
</svg>