<?xml version="1.0" encoding="UTF-8"?>
<svg width="600px" height="300px" viewBox="0 0 600 300" version="1.1" xmlns="http://www.w3.org/2000/svg" xmlns:xlink="http://www.w3.org/1999/xlink">
    <title>biwa-logos</title>
    <g id="clara-fonts-text" stroke="none" stroke-width="1" fill="none" fill-rule="evenodd">
        <g id="biwa-framework" transform="translate(33.000000, 25.000000)">
            <g id="logo" transform="translate(0.000000, 22.188343)">
                <path d="M114.93591,118.190249 C114.93591,118.190249 100.89459,98.0977735 100.134325,78.6424022 C99.3688158,59.1817655 84.9971737,47.6559718 68.5230039,47.6559718 C52.048834,47.6559718 37.6771919,59.1817655 36.9169263,78.6424022 C36.1514174,98.0977735 22.1153408,118.190249 22.1153408,118.190249 L22.167773,118.216576 C11.69708,130.927067 5.24268696,147.107407 5.24268696,162.798072 C5.24268696,195.795856 33.5770007,222.548966 68.5230039,222.548966 C103.47425,222.548966 131.803321,195.795856 131.803321,162.798072 C131.803321,147.112672 125.354171,130.932332 114.888721,118.221841 L114.93591,118.190249 Z" id="Fill-1" fill="#F9D841"></path>
                <path d="M119.39631,124.354363 C120.717599,129.835566 121.493594,135.390482 121.493594,140.898011 C121.493594,178.37132 89.3160068,208.752238 49.6301407,208.752238 C40.0193344,208.752238 30.8646875,206.935701 22.4860359,203.708058 C34.0315871,215.28124 50.358947,222.547386 68.5266741,222.547386 C103.472677,222.547386 131.806991,195.794276 131.806991,162.796492 C131.806991,149.527876 127.156263,135.93281 119.39631,124.354363" id="Fill-3" fill="#FAAC28"></path>
                <path d="M26.8714578,120.52542 C26.6931886,120.899258 26.4729737,121.252035 26.20557,121.573219 C16.2172525,133.693995 10.4864226,148.715963 10.4864226,162.795439 C10.4864226,192.839377 36.5242098,217.28101 68.5235282,217.28101 C100.52809,217.28101 126.560634,192.839377 126.560634,162.795439 C126.560634,148.726494 120.835047,133.704525 110.851973,121.578485 C110.579326,121.252035 110.353868,120.899258 110.175599,120.52542 C107.595939,116.655407 95.6361737,97.7686907 94.8968809,78.8451171 C94.1942906,61.0325268 80.7349672,52.9186629 68.5235282,52.9186629 C56.3173323,52.9186629 42.8527658,61.0325268 42.1554187,78.8451171 C41.4108827,97.7686907 29.4511177,116.660672 26.8714578,120.52542 M68.5235282,227.811657 C30.7409477,227.811657 4.58035179e-14,198.647029 4.58035179e-14,162.795439 C4.58035179e-14,146.557181 6.41244739,129.360633 17.6119467,115.491771 C17.6748652,115.381199 17.743027,115.275892 17.8164319,115.170586 C17.9475122,114.981034 30.9873786,96.0627258 31.6794825,78.4344219 C32.4974235,57.5468825 47.9911128,42.3880154 68.5235282,42.3880154 C89.0559435,42.3880154 104.554876,57.5468825 105.372817,78.4344219 C106.064921,96.1364404 119.094301,114.975769 119.225381,115.16532 C119.298786,115.270627 119.366948,115.370668 119.429866,115.48124 C130.634609,129.360633 137.047056,146.557181 137.047056,162.795439 C137.047056,198.647029 106.306109,227.811657 68.5235282,227.811657" id="Fill-5" fill="#454849"></path>
                <path d="M34.0551816,132.521407 C33.4102666,132.521407 32.7548652,132.363447 32.1571391,132.026467 C30.2538534,130.973402 29.5669927,128.572414 30.615635,126.661102 C32.3563811,123.496642 34.3225853,120.432224 36.4670588,117.536296 C36.5194909,117.430989 36.5771662,117.325683 36.6453279,117.225642 C36.7239761,117.094009 44.9400882,104.02021 47.9706643,89.4299975 C48.4163373,87.2975414 50.4769193,85.9180265 52.6266359,86.3708444 C54.7501365,86.8183969 56.1133714,88.9139958 55.6729417,91.0464519 C52.679068,105.431316 45.3805179,118.01544 43.6397718,120.879776 C43.5139347,121.19043 43.3513952,121.480023 43.1469099,121.748555 C41.0705983,124.51285 39.1725558,127.445635 37.4999714,130.483727 C36.7816514,131.784262 35.4393893,132.521407 34.0551816,132.521407" id="Fill-7" fill="#FEFEFE"></path>
                <path d="M58.5116162,72.5935982 C60.5197662,74.6102172 60.5197662,77.8799833 58.5116162,79.8966023 C56.5034663,81.9132213 53.2474321,81.9132213 51.2392822,79.8966023 C49.2311323,77.8799833 49.2311323,74.6102172 51.2392822,72.5935982 C53.2474321,70.5769792 56.5034663,70.5769792 58.5116162,72.5935982" id="Fill-9" fill="#FEFEFE"></path>
                <path d="M63.3872784,45.2523515 C63.2155147,44.4034392 60.5905201,31.1866757 62.5130922,15.8517069 C63.5836022,7.31302129 74.2671005,8.3362945 73.2369205,14.8799122 C70.9407366,29.4650811 73.6189161,42.9288899 73.6587293,43.1251607 C74.245969,45.9737008 72.4213314,48.7590571 69.5847541,49.3435081 C69.2282158,49.4172226 68.8716774,49.4540799 68.5203823,49.4540799 C66.0875322,49.4540799 63.9011131,47.7428496 63.3872784,45.2523515 Z" id="Fill-11" fill="#454849"></path>
                <path d="M138.893715,17.7715737 C81.0715814,-17.8588722 71.3296949,34.0203628 71.3296949,34.0203628 C71.3296949,34.0203628 103.412905,75.8375642 138.893715,17.7715737" id="Fill-14" fill="#3BB777"></path>
                <path d="M138.893715,17.7715737 L71.3296949,34.0203628 C71.3296949,34.0203628 103.412905,75.8375642 138.893715,17.7715737" id="Fill-16" fill="#239857"></path>
                <path d="M77.0967029,32.6192602 C80.546736,36.226007 89.1193864,43.902849 100.245481,43.2815408 C110.852497,42.6865592 121.365136,34.7043284 131.531722,19.5401959 C115.59236,10.6260028 102.604926,8.319791 92.857796,12.6320912 C82.7593711,17.1286777 78.5280996,27.8383462 77.0967029,32.6192602 M98.9504075,53.8490456 C80.1534951,53.8490456 67.7113548,37.9319719 67.1765472,37.2316838 C66.2642284,36.0417206 65.9024469,34.5147767 66.1750938,33.0404861 C66.3481198,32.145381 70.4954999,11.0630247 88.6107949,3.00707932 C102.615412,-3.22179869 120.45806,0.23751902 141.635391,13.279726 C144.104943,14.8014046 144.875695,18.0395787 143.36565,20.5248115 C130.36773,41.7914542 116.022303,52.9855325 100.727856,53.8016577 C100.13013,53.8332496 99.532404,53.8490456 98.9504075,53.8490456" id="Fill-18" fill="#454849"></path>
            </g>
            <g id="biwa-text" transform="translate(160.545234, 75.462721)" fill="#454849" fill-rule="nonzero" stroke="#FFFFFF">
                <path d="M67.7944944,9.77366399 C75.9459061,9.77515235 82.5005452,11.3579435 87.4414736,14.5447813 C92.661891,18.0440385 95.1244754,22.9471483 95.229532,29.4882279 C95.2330595,36.5581253 93.2404426,42.0141938 89.2360459,46.2803438 C84.9354602,50.690382 79.4483937,54.4521883 72.4953893,57.8693557 L71.7708723,58.2216388 L69.9335657,59.0961882 C76.0596888,61.1591139 80.6344637,64.022272 83.6414949,67.7069287 C86.4387489,71.1345353 87.8697806,75.270521 87.9453006,80.1031623 C87.948409,87.5684969 84.8975058,94.1368428 78.8259441,100.200266 L78.4342956,100.586611 L78.0294337,100.976417 C71.7392625,106.960928 64.244669,111.58142 55.5496451,114.839516 L54.7309699,115.140971 L53.9017037,115.435715 C45.0881979,118.506846 36.5438881,120.144706 28.2709871,120.346341 L27.3856436,120.362449 L26.5293923,120.367601 C17.9796939,120.367601 11.5213383,119.345326 7.17109017,117.276998 C4.95561465,116.171247 3.31208793,114.821604 2.21193666,113.197038 C1.10721662,111.565724 0.555065165,109.660182 0.503929929,107.463781 C0.501842091,102.60898 2.49019309,95.2600939 6.43775195,85.0924188 L6.68188696,84.4663833 L6.92337613,83.8524026 C10.46195,74.84254 14.0063871,65.6099182 17.5567771,56.1542905 L18.7404611,52.9941548 L19.8169648,50.1068464 C24.0481499,38.6877446 26.19479,30.0415339 26.2777928,24.1644903 C26.2805447,22.2816505 25.7166955,21.0961538 24.6353763,20.1975184 C23.3594152,19.2319372 22.2316509,18.705461 21.038363,18.4379481 C19.4693797,18.1531129 17.6008674,17.8945741 15.0725906,17.590313 C14.557758,17.4888237 14.1893657,17.3117758 13.9530524,17.0186118 C13.6914896,16.6941238 13.5960827,16.2478114 13.5750141,15.691775 C13.5721723,14.1760985 13.8299236,12.9432122 14.3500723,11.7794874 C14.9380819,10.5887997 15.3015223,9.90545777 15.6533293,9.78747248 C23.0658969,10.6857744 29.3690362,11.1709235 34.6347018,11.2380163 L35.2616064,11.2440605 L35.8912658,11.2461207 L67.7944944,9.77366399 Z M55.7287241,20.1656297 C54.5782176,20.1655441 53.110486,20.26113 50.4147344,21.0013592 C50.4147344,24.3609608 46.0866419,36.6695405 37.4884545,57.9299021 L37.4884545,57.9299021 L37.22531,58.5800516 L36.9411961,59.2825142 C28.3698805,80.5070491 24.0575706,94.1341446 23.9628959,100.349433 C23.9628379,103.139278 24.7609129,105.218548 26.3451902,106.624251 C27.8927721,107.997395 30.219233,108.736641 33.3926913,108.787387 C41.5827887,108.787451 48.6400113,106.545684 54.5761152,102.072822 L54.5761152,102.072822 L55.0162131,101.735489 L55.3851986,101.44514 C61.1063283,96.8712774 64.0243013,91.1160471 64.1498033,83.7556419 C64.149876,76.6172734 61.9212428,71.2549356 56.6045602,67.3669597 C55.983627,67.7809151 54.6655534,68.354445 52.3165918,69.2257597 C50.2577579,69.9801373 48.6944072,70.3870422 47.4441548,70.4344726 C46.1615949,70.4329883 45.1757457,70.1198601 44.5149285,69.4093861 C43.8477885,68.6921143 43.5227828,67.597286 43.4843367,66.1234856 C43.4860011,63.6788276 44.4624294,61.033819 46.6284908,57.8063405 C48.563117,55.036105 50.3088907,53.5131703 52.0916319,53.403812 C55.417221,53.4062962 59.1835274,54.260089 63.3926099,55.9535843 L63.3926099,55.9535843 L64.264091,56.3102248 L64.6376049,55.9236662 C69.9308153,50.3784823 72.6233181,44.6361026 72.7519087,38.2829205 C72.7519087,32.2743184 71.2301349,27.8121751 67.9680625,24.6129347 C64.8848274,21.7523776 60.9686393,20.262592 55.7287241,20.1656297 Z M364.832644,29.2806305 C366.994555,29.280197 368.669131,30.3142918 370.071184,32.3341088 C371.647825,34.7717139 372.384494,37.2820915 372.455669,40.1218957 C372.45836,43.556801 370.172119,48.8865624 365.671133,56.5519038 L365.380829,57.0443571 L365.092361,57.5299577 C360.540458,65.1638786 355.014004,73.0084095 348.51434,81.063098 L347.661039,82.1149014 L346.722305,83.25982 C345.890413,86.6471074 345.438763,90.9499696 345.372307,96.1705548 L345.365823,96.8567053 L345.363713,97.5413684 C345.363713,101.437168 345.898372,104.370121 346.935489,106.350459 C347.484286,107.398369 348.174445,108.188746 348.996845,108.730244 C349.828101,109.277573 350.79691,109.573724 351.906101,109.61024 C354.763476,109.614018 358.091711,108.462835 362.100052,106.122368 L362.548233,105.857421 L362.997422,105.5855 L364.973529,104.347457 C365.144945,104.442579 365.360947,104.765045 365.638716,105.206976 L365.833234,105.518111 C365.90125,105.626934 365.972504,105.740471 366.047185,105.857541 C366.881284,107.193339 367.287513,108.089801 367.341143,108.751698 C367.331941,109.509008 366.281341,110.533815 364.477694,112.008339 C362.276807,113.765459 359.516936,115.319779 355.9935,116.84546 L355.399156,117.099505 L354.843383,117.331382 C351.19154,118.837768 347.519366,119.669414 343.830755,119.82429 L343.179654,119.844595 L342.557226,119.850963 C337.675511,119.850963 333.987558,118.20737 331.516055,114.879374 C329.003261,111.495778 327.74364,106.413553 327.689067,99.6529959 C327.687192,99.4206843 327.686772,99.1903312 327.687676,98.9629508 C327.430546,99.0226523 327.194596,99.1010382 326.974831,99.2052621 C326.209553,99.5681963 325.562709,100.28135 324.666853,101.316985 C323.413705,102.766364 322.146241,104.142818 320.750671,105.578145 L320.041683,106.301325 L319.471574,106.874789 C317.902158,108.444205 316.132017,110.065111 314.162362,111.736816 L313.498423,112.295932 L312.824424,112.855065 C307.2267,117.283853 301.744556,119.57323 296.367375,119.691164 C290.652585,119.694697 286.625336,118.159629 283.887767,115.031743 C281.076386,111.602885 279.722578,106.997687 279.575796,100.98535 L279.56577,100.434891 L279.562342,99.8662421 C279.562342,93.4761898 282.082131,85.5485271 287.090047,76.0787797 L287.427594,75.4451785 L287.767906,74.8154765 C292.918025,65.3360388 299.375699,57.0205533 307.13957,49.8709769 L307.89499,49.1827222 L308.661156,48.4994277 C316.879637,41.2311568 324.568491,37.5006397 331.736494,37.3660265 C335.19778,37.3622629 338.085218,38.0868685 340.79262,39.5379865 C343.926242,41.3020091 345.930549,43.0627639 347.227866,45.0711017 C347.3658,45.2846347 347.497898,45.5043023 347.625241,45.729294 C347.769059,45.5142353 347.914649,45.297787 348.062006,45.0799488 C354.936133,34.9178893 360.433225,29.4491967 364.832644,29.2806305 Z M331.865408,46.593359 C323.985628,51.3709915 316.722175,58.9085408 310.085499,69.2174167 L310.085499,69.2174167 L309.639246,69.9162599 L309.239695,70.552381 C302.911746,80.7128149 299.69686,90.0330518 299.567758,98.5080814 L299.567758,98.5080814 L299.563716,99.0358042 L299.568451,99.367126 C299.619153,101.111945 300.079857,102.505113 301.087281,103.740035 C302.065584,104.825062 303.169616,105.400215 304.687617,105.480964 C307.862863,105.480964 311.407832,104.131828 315.31244,101.392827 L315.31244,101.392827 L315.723605,101.100239 L316.351442,100.641654 C319.871733,98.043465 322.755423,95.4531283 325.00701,92.8708823 L325.00701,92.8708823 L325.396876,92.4163407 L329.113022,88.0413133 L329.33377,87.2383043 C332.033889,77.5718238 336.574726,66.8119188 342.952837,54.9572838 L342.952837,54.9572838 L343.624863,53.7149525 L343.440905,53.4160395 C342.378671,51.7391619 340.972115,50.3462158 338.832273,49.011144 C337.02064,47.947433 335.51087,47.2852129 334.05101,46.9623566 L334.05101,46.9623566 Z M133.040123,36.8744402 C135.785571,36.871453 138.081337,37.415673 140.221466,38.5098506 C142.60298,39.8036112 143.730704,41.1116253 143.817466,42.7029051 C143.814865,44.6937211 141.87558,49.6111663 138.072956,57.6733823 L138.072956,57.6733823 L137.852453,58.1399327 C134.088713,66.0695226 130.302438,74.4794914 126.493418,83.370424 L126.493418,83.370424 L125.677231,85.2820943 C121.645146,94.7583447 119.60187,101.778887 119.517807,106.34745 C119.514649,107.434943 119.696383,107.987036 119.988547,108.375546 C120.319274,108.815337 120.807568,109.074993 121.475602,109.117294 C124.306004,109.123408 127.52591,107.873324 131.321386,105.325374 L131.321386,105.325374 L133.378395,103.844936 C133.535102,103.884015 133.68682,103.987421 133.841016,104.132435 C134.121469,104.39619 134.395266,104.795347 134.668598,105.315706 C135.358148,106.676137 135.687068,107.60374 135.732456,108.313414 C135.726205,109.13682 134.645743,110.18619 132.777641,111.668808 C130.388302,113.531296 127.251376,115.198116 123.11874,116.875475 L123.11874,116.875475 L122.570117,117.095892 C118.378658,118.746582 114.06393,119.61147 109.630273,119.690016 L109.630273,119.690016 L108.959082,119.695971 C105.583644,119.695971 103.024753,119.029908 101.304658,117.64694 C99.620163,116.292595 98.7730212,114.252538 98.7160828,111.552218 C98.7142043,106.058951 100.321876,99.4928107 103.518206,91.5553426 L103.518206,91.5553426 L103.790494,90.8852233 C106.935223,83.1981089 110.109256,75.8701753 113.312225,68.9023115 L113.312225,68.9023115 L114.113983,67.1669493 C117.553676,59.759689 119.295628,54.3214673 119.375717,50.8478089 C119.379164,49.9174555 119.224306,49.4493525 118.983429,49.1180109 C118.701608,48.7303471 118.28607,48.4991519 117.716492,48.4579155 C116.347199,48.4513067 114.672476,48.9173266 112.50393,49.8803569 C110.0958,50.9965684 108.775276,51.5229162 108.190158,51.5741163 C107.989157,51.5696788 107.83693,51.4365431 107.665022,51.2464298 C107.388506,50.9406306 107.097874,50.4795202 106.790505,49.8773648 C106.043566,48.3377228 105.687202,47.3253965 105.640764,46.612327 C105.645497,46.299439 106.036205,46.0619703 106.54304,45.7155421 C107.280316,45.2116049 108.386877,44.5878872 109.85941,43.8431706 C113.185901,42.1790704 116.943189,40.7221917 121.432203,39.3190172 L121.432203,39.3190172 L122.151606,39.0965151 C126.76995,37.6717069 130.402136,36.9271195 133.040123,36.8744402 Z M165.753099,35.2235499 C168.802677,35.218899 171.820999,35.7019388 175.204277,36.6626818 L175.204277,36.6626818 L175.849677,36.8503939 C179.299682,37.8821711 182.095487,38.9127582 184.238431,39.9456674 L184.238431,39.9456674 L188.359036,41.9058351 C191.969145,39.435689 194.696889,38.1231981 196.557061,38.0379982 C198.400579,38.0370307 199.965642,38.7938535 201.439948,40.2764865 C203.141028,42.0968063 203.929144,43.910965 204.005208,45.9565534 C204.007858,48.4499541 202.583155,51.0375103 199.825555,54.0671704 C196.646253,57.4639007 193.627184,59.08701 190.454005,59.1921095 C189.125366,59.1962066 188.185651,58.9434205 187.327491,58.4234335 C177.783606,69.2019534 173.401282,79.8209661 173.249599,90.2184661 L173.249599,90.2184661 L173.245562,90.7734027 C173.245562,94.1040078 173.890541,96.9771435 175.168536,99.3960853 C176.812427,102.307581 178.877835,103.578622 181.558449,103.667807 C184.400468,103.672845 186.806705,103.22498 189.088774,102.330607 L189.088774,102.330607 L189.56476,102.136608 C191.821745,101.204375 193.758839,100.065702 195.377858,98.7235286 C198.718407,95.75343 200.978742,93.2057591 202.543678,90.7621226 L202.543678,90.7621226 L203.689585,88.7705377 C203.874987,82.9309051 205.055558,76.2360075 207.22628,68.6868487 L207.22628,68.6868487 L207.471139,67.8458913 C209.673179,60.3195169 212.584133,53.6050939 216.204412,47.7061898 L216.204412,47.7061898 L216.661945,46.970947 C220.297292,41.2095716 223.860228,38.1683697 227.421784,38.0381154 C229.349274,38.037044 231.143686,39.0228724 233.051871,40.9200315 C235.247517,43.1656892 236.312211,44.9093455 236.399038,46.4333071 C236.401002,50.9769989 234.685326,56.6803875 231.287223,63.7516855 L231.287223,63.7516855 L231.00482,64.3345563 C227.530004,71.448872 222.985822,78.1827787 217.374975,84.5351207 L217.374975,84.5351207 L216.566023,85.4418787 C216.54464,91.9612237 217.615935,96.9939588 219.745839,100.551771 C222.209475,104.431882 224.749755,106.188547 227.525624,106.301768 C234.907001,106.307705 240.927371,102.242753 245.836705,94.0185551 L245.836705,94.0185551 L246.093448,93.582866 C250.891608,85.3647406 253.349348,74.6136065 253.443457,61.3202007 L253.443457,61.3202007 L253.44626,60.5242124 C253.44626,55.9466252 253.238647,52.2893254 252.825765,49.5493416 C252.557857,47.8353229 252.371419,46.8292394 252.209956,46.1613298 C252.156348,45.9395752 252.104517,45.7523277 252.055401,45.5989802 C253.206653,43.8355365 255.372551,42.4317008 258.329838,41.1528983 C261.928361,39.6420648 264.851702,38.9371361 267.534258,38.866344 C270.517916,38.8621242 272.377321,39.7274891 273.469299,41.5483847 C274.634944,43.6509645 275.187495,45.7835773 275.249872,48.1576927 C275.254809,54.1334487 273.89261,60.7468913 271.179745,68.4585996 L271.179745,68.4585996 L270.92007,69.1886645 C268.142519,76.8677771 264.594591,84.3289756 260.277731,91.5704221 L260.277731,91.5704221 L259.622923,92.6575101 C255.175933,99.9644603 249.738571,106.193141 243.312337,111.340861 L243.312337,111.340861 L242.641987,111.871162 C236.117275,116.955138 229.571052,119.570467 223.004136,119.691476 C217.731203,119.695832 213.873601,118.106742 210.974113,114.895942 C208.037527,111.64406 206.082508,106.759302 205.076221,100.259777 C205.023032,99.916235 204.973734,99.5761918 204.928275,99.2406557 C204.648713,99.5320568 204.408699,99.7847671 204.21295,99.9990499 C203.301829,100.996439 201.6481,103.024026 199.182397,105.610517 C196.398116,108.50488 194.110512,110.635886 191.996166,112.339711 L191.996166,112.339711 L191.546567,112.697676 C189.466687,114.317125 186.956442,115.824345 184.019989,117.220149 L184.019989,117.220149 L183.380445,117.519324 C180.372668,118.887943 177.440494,119.613247 174.589281,119.689159 L174.589281,119.689159 L174.081378,119.695971 C168.780169,119.695971 164.605904,117.803277 161.575874,114.007643 C158.349956,109.762544 156.82331,104.652618 156.735569,98.3809818 L156.735569,98.3809818 L156.731514,97.7996877 C156.731514,91.4201318 158.240977,84.7546956 161.251351,77.8046152 L161.251351,77.8046152 L161.570073,77.0801969 C164.694969,70.1029164 167.840983,64.6499839 171.01185,60.7278281 L171.01185,60.7278281 L171.345321,60.3209531 L176.429806,53.9997011 C172.234725,50.4007077 168.262828,48.5696248 164.529331,48.4570571 C162.958591,48.4507409 162.048305,48.8825428 161.35145,49.689074 C160.689624,50.4550626 160.224801,51.5974723 159.98888,53.1334319 C159.77257,54.8248303 159.524147,55.8915752 159.187075,56.6174081 C158.94675,57.1349113 158.678745,57.4912663 158.304958,57.5390055 C156.546417,57.5420805 155.287683,57.3480252 154.432947,56.9317106 C154.062655,56.7513526 153.774864,56.530578 153.578561,56.2592445 C153.395653,56.0064247 153.296471,55.7111627 153.274711,55.3754841 C153.270669,53.6328149 153.370402,52.0684209 153.568871,50.5279869 L153.568871,50.5279869 L153.67764,49.7501228 C153.929092,48.099968 154.384383,46.1671075 155.041432,43.9531738 L155.041432,43.9531738 L155.210502,43.3917886 C155.913593,41.141896 157.132251,39.2675673 158.868683,37.7702695 C160.997126,36.057525 163.188946,35.2940595 165.753099,35.2235499 Z M155.746845,0.501190745 C156.020889,0.691028306 156.100996,0.812727422 156.152455,0.984991022 C156.310977,1.51565445 156.38995,2.3124818 156.401654,3.36779948 C156.403123,5.93303396 155.844881,9.02186021 154.73834,12.9045915 L154.73834,12.9045915 L154.588614,13.4233585 C153.474575,17.2906676 152.284362,19.8716699 150.970725,21.1302861 C148.728367,22.2832049 145.074583,22.7922602 139.88464,22.8246208 L139.88464,22.8246208 L139.363263,22.826233 C134.339711,22.826233 130.69625,22.5606633 128.435349,22.017044 C128.995388,19.1274194 129.394612,16.4635635 129.447112,13.9660078 L129.447112,13.9660078 L129.452995,13.4067718 C129.452995,10.9053827 129.409758,9.16334834 129.325422,8.18018041 C130.522412,6.3573775 133.749354,4.75748268 138.89097,3.17634525 C144.750188,1.43141789 149.998903,0.586648126 155.089815,0.506377822 L155.089815,0.506377822 Z" id="Shape"></path>
            </g>
        </g>
    </g>
</svg>