<?xml version="1.0" encoding="UTF-8"?>
<svg width="100px" height="100px" viewBox="0 0 100 100" version="1.1" xmlns="http://www.w3.org/2000/svg" xmlns:xlink="http://www.w3.org/1999/xlink">
    <g id="Page-1" stroke="none" stroke-width="1" fill="none" fill-rule="evenodd">
        <g id="logo-biwa">
            <rect id="Rectangle" x="0" y="0" width="100" height="100"></rect>
            <g id="logo" transform="translate(23.000000, 5.012429)">
                <path d="M43.0596219,48.9314046 C43.0596219,48.9314046 37.7991779,41.4039539 37.5143517,34.1151881 C37.2275613,26.8244497 31.8433652,22.506423 25.6714776,22.506423 C19.4995899,22.506423 14.1153938,26.8244497 13.8305677,34.1151881 C13.5437773,41.4039539 8.28529756,48.9314046 8.28529756,48.9314046 L8.30494074,48.9412676 C4.38219738,53.7031298 1.96412173,59.7649369 1.96412173,65.643292 C1.96412173,78.0055912 12.5792971,88.0283839 25.6714776,88.0283839 C38.7656224,88.0283839 49.3788334,78.0055912 49.3788334,65.643292 C49.3788334,59.7669095 46.9627221,53.7051024 43.041943,48.9432402 L43.0596219,48.9314046 Z" id="Fill-1" fill="#F9D841"></path>
                <path d="M44.7306674,51.2407302 C45.2256755,53.2942093 45.5163946,55.3753048 45.5163946,57.4386469 C45.5163946,71.4776581 33.4613741,82.8595739 18.59345,82.8595739 C14.9928548,82.8595739 11.5631553,82.1790261 8.42417485,80.9698208 C12.7496034,85.3056008 18.8664902,88.0277921 25.6728526,88.0277921 C38.7650331,88.0277921 49.3802084,78.0049994 49.3802084,65.6427002 C49.3802084,60.6717422 47.6378582,55.5784829 44.7306674,51.2407302" id="Fill-3" fill="#FAAC28"></path>
                <path d="M10.0671306,49.8062538 C10.0003437,49.9463085 9.91784238,50.0784729 9.81766215,50.1988016 C6.07563606,54.7397323 3.92863632,60.3675669 3.92863632,65.6423057 C3.92863632,76.8979749 13.6834403,86.0547952 25.671674,86.0547952 C37.661872,86.0547952 47.4147117,76.8979749 47.4147117,65.6423057 C47.4147117,60.3715122 45.2696763,54.7436775 41.5296145,50.2007742 C41.4274699,50.0784729 41.3430043,49.9463085 41.2762174,49.8062538 C40.3097729,48.356391 35.8291632,41.2806663 35.5521943,34.1911333 C35.2889757,27.5178194 30.246571,24.4780391 25.671674,24.4780391 C21.0987413,24.4780391 16.0543723,27.5178194 15.793118,34.1911333 C15.5141848,41.2806663 11.0335751,48.3583636 10.0671306,49.8062538 M25.671674,90 C11.5167974,90 1.71598429e-14,79.0737554 1.71598429e-14,65.6423057 C1.71598429e-14,59.5588 2.40236111,53.1162806 6.59814469,47.9204459 C6.62171651,47.8790212 6.64725265,47.8395692 6.6747531,47.8001171 C6.72386105,47.7291035 11.6091203,40.6415431 11.8684103,34.0372703 C12.1748439,26.2119566 17.9794041,20.5328343 25.671674,20.5328343 C33.3639439,20.5328343 39.1704684,26.2119566 39.476902,34.0372703 C39.736192,40.6691595 44.6175226,47.7271309 44.6666306,47.7981445 C44.694131,47.8375966 44.7196672,47.875076 44.743239,47.9165007 C48.9409869,53.1162806 51.343348,59.5588 51.343348,65.6423057 C51.343348,79.0737554 39.8265506,90 25.671674,90" id="Fill-5" fill="#454849"></path>
                <path d="M12.7584429,54.3004338 C12.5168317,54.3004338 12.271292,54.2412557 12.0473597,54.1150092 C11.3343122,53.7204887 11.0769865,52.820982 11.4698502,52.1049273 C12.1220038,50.9193933 12.8586231,49.7713387 13.6620292,48.6864074 C13.6816724,48.6469553 13.7032799,48.6075033 13.728816,48.5700239 C13.7582808,48.5207088 16.8363674,43.6227371 17.9717433,38.1566559 C18.1387103,37.3577519 18.9106873,36.8409301 19.7160578,37.0105739 C20.5116066,37.1782451 21.0223294,37.9633408 20.8573266,38.7622448 C19.735701,44.1513945 17.0013701,48.8659142 16.3492165,49.9390099 C16.3020728,50.0553934 16.241179,50.1638866 16.1645706,50.2644893 C15.3867006,51.3001056 14.6756174,52.3988451 14.0489999,53.5370367 C13.7798883,54.0242695 13.2770229,54.3004338 12.7584429,54.3004338" id="Fill-7" fill="#FEFEFE"></path>
                <path d="M21.9208085,31.8490625 C22.6731423,32.6045692 22.6731423,33.8295553 21.9208085,34.585062 C21.1684746,35.3405687 19.9486331,35.3405687 19.1962992,34.585062 C18.4439653,33.8295553 18.4439653,32.6045692 19.1962992,31.8490625 C19.9486331,31.0935557 21.1684746,31.0935557 21.9208085,31.8490625" id="Fill-9" fill="#FEFEFE"></path>
                <path d="M25.6704954,23.1800668 C24.7590518,23.1800668 23.9399311,22.538971 23.7474279,21.60593 C23.6472477,21.1108068 21.3195307,9.38565826 26.6605118,0.919248816 C27.2419499,-0.0019564991 28.4558986,-0.278120833 29.3712708,0.307742076 C30.2866431,0.891632382 30.5596833,2.10872805 29.9782451,3.02993337 C25.4779922,10.1648362 27.5739197,20.7024782 27.5955272,20.8089987 C27.8155308,21.8761766 27.1319481,22.9196832 26.069252,23.1386421 C25.9356784,23.1662585 25.8021047,23.1800668 25.6704954,23.1800668" id="Fill-11" fill="#454849"></path>
                <path d="M52.0351809,11.3105237 C30.3726802,-2.03807668 26.7229771,17.3979746 26.7229771,17.3979746 C26.7229771,17.3979746 38.7426399,33.0643828 52.0351809,11.3105237" id="Fill-14" fill="#3BB777"></path>
                <path d="M52.0351809,11.3105237 L26.7229771,17.3979746 C26.7229771,17.3979746 38.7426399,33.0643828 52.0351809,11.3105237" id="Fill-16" fill="#239857"></path>
                <path d="M28.8835306,16.8730651 C30.176052,18.2242978 33.3877122,21.1003521 37.5559953,20.867585 C41.5298109,20.6446809 45.4682688,17.6542157 49.2770817,11.9731208 C43.3055545,8.63350497 38.4399385,7.76950512 34.788271,9.38506648 C31.0049942,11.0696689 29.4197895,15.0819422 28.8835306,16.8730651 M37.0708087,24.826598 C30.0287281,24.826598 25.3674011,18.8634209 25.1670407,18.6010648 C24.8252493,18.1552567 24.6897114,17.583202 24.7918559,17.0308733 C24.8566784,16.6955309 26.4104541,8.79723097 33.1971733,5.77914932 C38.4438671,3.44556069 45.1284418,4.74156046 53.0623228,9.62769657 C53.9875167,10.1977787 54.2762714,11.4109291 53.7105478,12.3419975 C48.8410031,20.3093385 43.4666286,24.5030912 37.7367126,24.8088445 C37.5127803,24.8206802 37.288848,24.826598 37.0708087,24.826598" id="Fill-18" fill="#454849"></path>
            </g>
        </g>
    </g>
</svg>